<svg width="158" height="157" viewBox="0 0 158 157" fill="none" xmlns="http://www.w3.org/2000/svg">
<g clip-path="url(#clip0_1801_7972)">
<path d="M150.356 97.4122L146.609 98.416L147.613 102.163L151.36 101.16L150.356 97.4122Z" fill="#201F20"/>
<path d="M149.352 93.6658L145.605 94.6697L146.609 98.416L150.356 97.4122L149.352 93.6658Z" fill="#201F20"/>
<path d="M148.348 89.9195L144.602 90.9233L145.605 94.6697L149.352 93.6659L148.348 89.9195Z" fill="#201F20"/>
<path d="M147.344 86.1732L143.598 87.177L144.601 90.9234L148.348 89.9195L147.344 86.1732Z" fill="#201F20"/>
<path d="M146.34 82.4256L142.594 83.4294L143.598 87.1758L147.344 86.172L146.34 82.4256Z" fill="#201F20"/>
<path d="M145.336 78.6793L141.59 79.6831L142.594 83.4295L146.34 82.4256L145.336 78.6793Z" fill="#201F20"/>
<path d="M141.321 63.6927L137.574 64.6965L138.578 68.4429L142.324 67.4391L141.321 63.6927Z" fill="#201F20"/>
<path d="M140.317 59.9464L136.57 60.9502L137.574 64.6966L141.321 63.6927L140.317 59.9464Z" fill="#201F20"/>
<path d="M139.313 56.2L135.566 57.2039L136.57 60.9502L140.317 59.9464L139.313 56.2Z" fill="#201F20"/>
<path d="M138.309 52.4527L134.562 53.4565L135.567 57.204L139.313 56.2001L138.309 52.4527Z" fill="#201F20"/>
<path d="M137.305 48.7064L133.559 49.7102L134.562 53.4566L138.309 52.4527L137.305 48.7064Z" fill="#201F20"/>
<path d="M136.301 44.9598L132.555 45.9636L133.559 49.71L137.305 48.7062L136.301 44.9598Z" fill="#201F20"/>
<path d="M135.297 41.2134L131.551 42.2173L132.555 45.9636L136.301 44.9598L135.297 41.2134Z" fill="#201F20"/>
<path d="M134.293 37.4671L130.547 38.4709L131.551 42.2173L135.297 41.2135L134.293 37.4671Z" fill="#201F20"/>
<path d="M133.289 33.7198L129.543 34.7236L130.547 38.47L134.293 37.4662L133.289 33.7198Z" fill="#201F20"/>
<path d="M132.285 29.9735L128.539 30.9773L129.543 34.7247L133.29 33.7209L132.285 29.9735Z" fill="#201F20"/>
<path d="M131.282 26.2271L127.535 27.231L128.539 30.9773L132.285 29.9735L131.282 26.2271Z" fill="#201F20"/>
<path d="M146.61 98.4161L142.863 99.4199L143.867 103.167L147.614 102.164L146.61 98.4161Z" fill="#201F20"/>
<path d="M145.606 94.6697L141.859 95.6736L142.863 99.42L146.61 98.4161L145.606 94.6697Z" fill="#FFF05A"/>
<path d="M144.602 90.9232L140.855 91.927L141.859 95.6734L145.606 94.6695L144.602 90.9232Z" fill="#FFF05A"/>
<path d="M143.598 87.1768L139.852 88.1807L140.855 91.927L144.602 90.9232L143.598 87.1768Z" fill="#FFF05A"/>
<path d="M142.594 83.4295L138.848 84.4333L139.851 88.1797L143.598 87.1759L142.594 83.4295Z" fill="#BFB443"/>
<path d="M141.59 79.6832L137.844 80.687L138.848 84.4334L142.594 83.4295L141.59 79.6832Z" fill="black"/>
<path d="M140.586 75.9368L136.84 76.9407L137.844 80.6881L141.59 79.6843L140.586 75.9368Z" fill="#201F20"/>
<path d="M137.574 64.6966L133.828 65.7004L134.832 69.4468L138.578 68.443L137.574 64.6966Z" fill="#201F20"/>
<path d="M136.571 60.9503L132.824 61.9541L133.828 65.7005L137.574 64.6966L136.571 60.9503Z" fill="#FFF05A"/>
<path d="M135.567 57.2039L131.82 58.2078L132.824 61.9541L136.571 60.9503L135.567 57.2039Z" fill="#FFF05A"/>
<path d="M134.563 53.4564L130.816 54.4602L131.821 58.2076L135.567 57.2038L134.563 53.4564Z" fill="#BFB443"/>
<path d="M133.559 49.71L129.812 50.7139L130.816 54.4602L134.563 53.4564L133.559 49.71Z" fill="black"/>
<path d="M132.555 45.9637L128.809 46.9675L129.812 50.7139L133.559 49.7101L132.555 45.9637Z" fill="black"/>
<path d="M131.551 42.2174L127.805 43.2212L128.809 46.9676L132.555 45.9637L131.551 42.2174Z" fill="black"/>
<path d="M130.547 38.471L126.801 39.4749L127.805 43.2212L131.551 42.2174L130.547 38.471Z" fill="#BFB443"/>
<path d="M129.543 34.7237L125.797 35.7275L126.801 39.4739L130.547 38.4701L129.543 34.7237Z" fill="#FFF05A"/>
<path d="M128.539 30.9771L124.793 31.981L125.797 35.7284L129.543 34.7245L128.539 30.9771Z" fill="#FFF05A"/>
<path d="M127.535 27.2308L123.789 28.2346L124.793 31.981L128.539 30.9771L127.535 27.2308Z" fill="#BFB443"/>
<path d="M126.532 23.4835L122.785 24.4873L123.789 28.2337L127.535 27.2298L126.532 23.4835Z" fill="#201F20"/>
<path d="M142.864 99.4197L139.117 100.424L140.121 104.171L143.868 103.167L142.864 99.4197Z" fill="#201F20"/>
<path d="M141.86 95.6734L138.113 96.6772L139.117 100.424L142.863 99.4198L141.86 95.6734Z" fill="#FFF05A"/>
<path d="M140.856 91.9271L137.109 92.9309L138.113 96.6773L141.86 95.6734L140.856 91.9271Z" fill="#FFF05A"/>
<path d="M139.852 88.1807L136.105 89.1846L137.109 92.9309L140.856 91.9271L139.852 88.1807Z" fill="#BFB443"/>
<path d="M138.848 84.4334L135.102 85.4373L136.105 89.1836L139.852 88.1798L138.848 84.4334Z" fill="black"/>
<path d="M137.844 80.6871L134.098 81.6909L135.101 85.4373L138.848 84.4334L137.844 80.6871Z" fill="black"/>
<path d="M136.84 76.9405L133.094 77.9443L134.098 81.6918L137.844 80.6879L136.84 76.9405Z" fill="#201F20"/>
<path d="M133.828 65.7005L130.082 66.7043L131.086 70.4507L134.832 69.4469L133.828 65.7005Z" fill="#201F20"/>
<path d="M132.824 61.9542L129.078 62.958L130.082 66.7044L133.828 65.7005L132.824 61.9542Z" fill="#FFF05A"/>
<path d="M131.821 58.2078L128.074 59.2117L129.078 62.958L132.824 61.9542L131.821 58.2078Z" fill="#BFB443"/>
<path d="M130.817 54.4603L127.07 55.4641L128.074 59.2115L131.821 58.2077L130.817 54.4603Z" fill="black"/>
<path d="M129.813 50.7139L126.066 51.7178L127.07 55.4641L130.817 54.4603L129.813 50.7139Z" fill="black"/>
<path d="M128.809 46.9676L125.062 47.9714L126.066 51.7178L129.813 50.714L128.809 46.9676Z" fill="black"/>
<path d="M127.805 43.2213L124.059 44.2251L125.062 47.9715L128.809 46.9676L127.805 43.2213Z" fill="#BFB443"/>
<path d="M126.801 39.4749L123.055 40.4788L124.059 44.2251L127.805 43.2213L126.801 39.4749Z" fill="#FFF05A"/>
<path d="M125.797 35.7274L122.051 36.7312L123.055 40.4776L126.801 39.4737L125.797 35.7274Z" fill="#FFF05A"/>
<path d="M124.793 31.981L121.047 32.9849L122.051 36.7323L125.797 35.7284L124.793 31.981Z" fill="#BFB443"/>
<path d="M123.789 28.2347L120.043 29.2385L121.047 32.9849L124.793 31.9811L123.789 28.2347Z" fill="black"/>
<path d="M122.785 24.4874L119.039 25.4912L120.043 29.2376L123.789 28.2337L122.785 24.4874Z" fill="#201F20"/>
<path d="M139.117 100.424L135.371 101.427L136.375 105.175L140.122 104.171L139.117 100.424Z" fill="#201F20"/>
<path d="M138.114 96.6773L134.367 97.6812L135.371 101.428L139.117 100.424L138.114 96.6773Z" fill="#FFF05A"/>
<path d="M137.11 92.931L133.363 93.9348L134.367 97.6812L138.113 96.6773L137.11 92.931Z" fill="#BFB443"/>
<path d="M136.106 89.1846L132.359 90.1885L133.363 93.9348L137.11 92.931L136.106 89.1846Z" fill="black"/>
<path d="M135.102 85.4371L131.355 86.4409L132.359 90.1873L136.106 89.1835L135.102 85.4371Z" fill="black"/>
<path d="M134.098 81.6907L130.352 82.6946L131.355 86.4409L135.102 85.4371L134.098 81.6907Z" fill="black"/>
<path d="M133.094 77.9444L129.348 78.9482L130.352 82.6957L134.098 81.6918L133.094 77.9444Z" fill="#201F20"/>
<path d="M130.082 66.7042L126.336 67.708L127.34 71.4544L131.086 70.4505L130.082 66.7042Z" fill="#201F20"/>
<path d="M129.078 62.9578L125.332 63.9617L126.336 67.708L130.082 66.7042L129.078 62.9578Z" fill="#BFB443"/>
<path d="M128.074 59.2115L124.328 60.2153L125.332 63.9617L129.078 62.9579L128.074 59.2115Z" fill="black"/>
<path d="M127.071 55.4642L123.324 56.468L124.328 60.2154L128.075 59.2116L127.071 55.4642Z" fill="black"/>
<path d="M126.067 51.7178L122.32 52.7217L123.324 56.468L127.071 55.4642L126.067 51.7178Z" fill="black"/>
<path d="M125.063 47.9715L121.316 48.9753L122.32 52.7217L126.067 51.7179L125.063 47.9715Z" fill="#BFB443"/>
<path d="M124.059 44.2249L120.312 45.2288L121.316 48.9751L125.063 47.9713L124.059 44.2249Z" fill="#FFF05A"/>
<path d="M123.055 40.4786L119.309 41.4824L120.312 45.2288L124.059 44.225L123.055 40.4786Z" fill="#FFF05A"/>
<path d="M122.051 36.7313L118.305 37.7351L119.309 41.4815L123.055 40.4776L122.051 36.7313Z" fill="#BFB443"/>
<path d="M121.047 32.9849L117.301 33.9888L118.305 37.7362L122.051 36.7324L121.047 32.9849Z" fill="black"/>
<path d="M120.043 29.2386L116.297 30.2424L117.301 33.9888L121.047 32.985L120.043 29.2386Z" fill="black"/>
<path d="M119.039 25.491L115.293 26.4949L116.297 30.2412L120.043 29.2374L119.039 25.491Z" fill="#201F20"/>
<path d="M141.394 123.907L137.646 124.911L138.651 128.658L142.398 127.654L141.394 123.907Z" fill="#201F20"/>
<path d="M140.39 120.16L136.643 121.165L137.646 124.911L141.394 123.907L140.39 120.16Z" fill="#201F20"/>
<path d="M135.37 101.428L131.623 102.432L132.627 106.179L136.375 105.175L135.37 101.428Z" fill="#201F20"/>
<path d="M134.367 97.6812L130.619 98.6853L131.623 102.432L135.37 101.428L134.367 97.6812Z" fill="#BFB443"/>
<path d="M133.363 93.9348L129.615 94.939L130.619 98.6853L134.366 97.6812L133.363 93.9348Z" fill="black"/>
<path d="M132.359 90.1885L128.611 91.1926L129.615 94.939L133.363 93.9349L132.359 90.1885Z" fill="black"/>
<path d="M131.355 86.4409L127.607 87.4451L128.611 91.1914L132.359 90.1873L131.355 86.4409Z" fill="black"/>
<path d="M130.351 82.6946L126.604 83.6987L127.607 87.4451L131.355 86.441L130.351 82.6946Z" fill="#BFB443"/>
<path d="M129.347 78.9483L125.6 79.9524L126.604 83.6998L130.351 82.6957L129.347 78.9483Z" fill="#201F20"/>
<path d="M126.335 67.708L122.588 68.7122L123.592 72.4585L127.339 71.4544L126.335 67.708Z" fill="#201F20"/>
<path d="M125.331 63.9617L121.584 64.9658L122.588 68.7122L126.335 67.7081L125.331 63.9617Z" fill="black"/>
<path d="M124.328 60.2154L120.58 61.2195L121.584 64.9658L125.331 63.9617L124.328 60.2154Z" fill="black"/>
<path d="M123.324 56.468L119.576 57.4722L120.58 61.2196L124.328 60.2155L123.324 56.468Z" fill="black"/>
<path d="M122.32 52.7217L118.572 53.7258L119.576 57.4722L123.324 56.4681L122.32 52.7217Z" fill="#BFB443"/>
<path d="M121.316 48.9751L117.568 49.9792L118.572 53.7256L122.32 52.7215L121.316 48.9751Z" fill="#FFF05A"/>
<path d="M120.312 45.2288L116.564 46.2329L117.568 49.9793L121.316 48.9752L120.312 45.2288Z" fill="#FFF05A"/>
<path d="M119.308 41.4825L115.561 42.4866L116.564 46.2329L120.312 45.2288L119.308 41.4825Z" fill="#BFB443"/>
<path d="M118.304 37.7351L114.557 38.7393L115.56 42.4856L119.308 41.4815L118.304 37.7351Z" fill="black"/>
<path d="M117.3 33.9888L113.553 34.9929L114.557 38.7403L118.304 37.7362L117.3 33.9888Z" fill="black"/>
<path d="M116.296 30.2425L112.549 31.2466L113.553 34.9929L117.3 33.9888L116.296 30.2425Z" fill="black"/>
<path d="M115.292 26.4949L111.545 27.499L112.549 31.2454L116.296 30.2413L115.292 26.4949Z" fill="#201F20"/>
<path d="M112.281 15.2559L108.533 16.26L109.537 20.0064L113.284 19.0023L112.281 15.2559Z" fill="#201F20"/>
<path d="M111.277 11.5083L107.529 12.5125L108.533 16.2599L112.281 15.2558L111.277 11.5083Z" fill="#201F20"/>
<path d="M110.273 7.76199L106.525 8.76611L107.529 12.5125L111.277 11.5084L110.273 7.76199Z" fill="#201F20"/>
<path d="M137.647 124.911L133.9 125.915L134.905 129.662L138.651 128.658L137.647 124.911Z" fill="#201F20"/>
<path d="M136.643 121.165L132.896 122.168L133.9 125.915L137.647 124.911L136.643 121.165Z" fill="#3F3E40"/>
<path d="M135.639 117.418L131.893 118.422L132.896 122.168L136.643 121.164L135.639 117.418Z" fill="#201F20"/>
<path d="M134.635 113.672L130.889 114.676L131.893 118.422L135.639 117.418L134.635 113.672Z" fill="#201F20"/>
<path d="M133.631 109.925L129.885 110.929L130.889 114.676L134.635 113.672L133.631 109.925Z" fill="#201F20"/>
<path d="M132.627 106.179L128.881 107.183L129.885 110.929L133.631 109.925L132.627 106.179Z" fill="#201F20"/>
<path d="M131.623 102.432L127.877 103.436L128.881 107.183L132.627 106.179L131.623 102.432Z" fill="#201F20"/>
<path d="M130.619 98.6854L126.873 99.6892L127.877 103.436L131.623 102.432L130.619 98.6854Z" fill="black"/>
<path d="M129.616 94.9388L125.869 95.9426L126.873 99.689L130.619 98.6852L129.616 94.9388Z" fill="black"/>
<path d="M128.612 91.1925L124.865 92.1963L125.869 95.9427L129.615 94.9388L128.612 91.1925Z" fill="black"/>
<path d="M127.608 87.4451L123.861 88.449L124.865 92.1953L128.612 91.1915L127.608 87.4451Z" fill="#BFB443"/>
<path d="M126.604 83.6988L122.857 84.7026L123.861 88.449L127.608 87.4452L126.604 83.6988Z" fill="#FFF05A"/>
<path d="M125.6 79.9525L121.854 80.9563L122.858 84.7037L126.604 83.6999L125.6 79.9525Z" fill="#FFF05A"/>
<path d="M124.596 76.2049L120.85 77.2087L121.853 80.9551L125.6 79.9513L124.596 76.2049Z" fill="#201F20"/>
<path d="M123.592 72.4586L119.846 73.4624L120.85 77.2088L124.596 76.2049L123.592 72.4586Z" fill="#201F20"/>
<path d="M122.588 68.7122L118.842 69.7161L119.846 73.4624L123.592 72.4586L122.588 68.7122Z" fill="#3F3E40"/>
<path d="M121.584 64.9659L117.838 65.9697L118.842 69.7161L122.588 68.7123L121.584 64.9659Z" fill="black"/>
<path d="M120.58 61.2196L116.834 62.2234L117.838 65.9698L121.584 64.9659L120.58 61.2196Z" fill="black"/>
<path d="M119.576 57.472L115.83 58.4758L116.834 62.2233L120.581 61.2194L119.576 57.472Z" fill="#BFB443"/>
<path d="M118.573 53.7257L114.826 54.7295L115.83 58.4759L119.576 57.472L118.573 53.7257Z" fill="#FFF05A"/>
<path d="M117.569 49.9793L113.822 50.9832L114.826 54.7295L118.572 53.7257L117.569 49.9793Z" fill="#FFF05A"/>
<path d="M116.565 46.233L112.818 47.2368L113.822 50.9832L117.569 49.9793L116.565 46.233Z" fill="#BFB443"/>
<path d="M115.561 42.4866L111.814 43.4905L112.818 47.2368L116.565 46.233L115.561 42.4866Z" fill="black"/>
<path d="M114.557 38.7393L110.811 39.7432L111.814 43.4895L115.561 42.4857L114.557 38.7393Z" fill="black"/>
<path d="M113.553 34.9927L109.807 35.9966L110.811 39.744L114.557 38.7402L113.553 34.9927Z" fill="black"/>
<path d="M112.549 31.2464L108.803 32.2502L109.807 35.9966L113.553 34.9928L112.549 31.2464Z" fill="#BFB443"/>
<path d="M111.545 27.4991L107.799 28.5029L108.803 32.2493L112.549 31.2455L111.545 27.4991Z" fill="#201F20"/>
<path d="M110.541 23.7528L106.795 24.7566L107.799 28.503L111.545 27.4991L110.541 23.7528Z" fill="#201F20"/>
<path d="M109.537 20.0064L105.791 21.0103L106.795 24.7566L110.541 23.7528L109.537 20.0064Z" fill="#201F20"/>
<path d="M108.533 16.2601L104.787 17.2639L105.791 21.0103L109.537 20.0064L108.533 16.2601Z" fill="#F50076"/>
<path d="M107.53 12.5125L103.783 13.5164L104.787 17.2638L108.534 16.2599L107.53 12.5125Z" fill="#F50076"/>
<path d="M106.526 8.76619L102.779 9.77002L103.783 13.5164L107.529 12.5126L106.526 8.76619Z" fill="#F50076"/>
<path d="M105.522 5.01985L101.775 6.02368L102.779 9.77005L106.526 8.76621L105.522 5.01985Z" fill="#201F20"/>
<path d="M133.901 125.915L130.154 126.918L131.158 130.666L134.905 129.662L133.901 125.915Z" fill="#201F20"/>
<path d="M132.897 122.168L129.15 123.172L130.154 126.918L133.901 125.915L132.897 122.168Z" fill="#3F3E40"/>
<path d="M131.893 118.422L128.146 119.426L129.15 123.172L132.897 122.168L131.893 118.422Z" fill="#FCF7FF"/>
<path d="M130.889 114.676L127.143 115.679L128.146 119.426L131.893 118.422L130.889 114.676Z" fill="#FCF7FF"/>
<path d="M129.885 110.929L126.139 111.933L127.143 115.679L130.889 114.676L129.885 110.929Z" fill="#FCF7FF"/>
<path d="M128.881 107.183L125.135 108.187L126.139 111.933L129.885 110.929L128.881 107.183Z" fill="#7E7C80"/>
<path d="M128.881 107.183L125.135 108.187L126.139 111.933L129.885 110.929L128.881 107.183Z" fill="black" fill-opacity="0.2"/>
<path d="M127.877 103.435L124.131 104.439L125.135 108.187L128.881 107.183L127.877 103.435Z" fill="#201F20"/>
<path d="M126.873 99.689L123.127 100.693L124.131 104.439L127.877 103.435L126.873 99.689Z" fill="black"/>
<path d="M125.869 95.9427L122.123 96.9465L123.127 100.693L126.873 99.6891L125.869 95.9427Z" fill="black"/>
<path d="M124.866 92.1964L121.119 93.2002L122.123 96.9466L125.869 95.9427L124.866 92.1964Z" fill="#BFB443"/>
<path d="M123.862 88.449L120.115 89.4529L121.119 93.1992L124.865 92.1954L123.862 88.449Z" fill="#FFF05A"/>
<path d="M122.858 84.7027L119.111 85.7065L120.115 89.4529L123.862 88.4491L122.858 84.7027Z" fill="#FFF05A"/>
<path d="M121.854 80.9561L118.107 81.96L119.112 85.7074L122.858 84.7035L121.854 80.9561Z" fill="#FFF05A"/>
<path d="M120.85 77.2088L117.104 78.2126L118.107 81.959L121.854 80.9552L120.85 77.2088Z" fill="#FCF7FF"/>
<path d="M119.846 73.4625L116.1 74.4663L117.103 78.2127L120.85 77.2088L119.846 73.4625Z" fill="#7E7C80"/>
<path d="M119.846 73.4625L116.1 74.4663L117.103 78.2127L120.85 77.2088L119.846 73.4625Z" fill="black" fill-opacity="0.2"/>
<path d="M118.842 69.7161L115.096 70.72L116.1 74.4663L119.846 73.4625L118.842 69.7161Z" fill="#3F3E40"/>
<path d="M117.838 65.9698L114.092 66.9736L115.096 70.72L118.842 69.7162L117.838 65.9698Z" fill="black"/>
<path d="M116.834 62.2235L113.088 63.2273L114.092 66.9737L117.838 65.9698L116.834 62.2235Z" fill="#BFB443"/>
<path d="M115.83 58.4759L112.084 59.4797L113.088 63.2272L116.834 62.2233L115.83 58.4759Z" fill="#FFF05A"/>
<path d="M114.826 54.7296L111.08 55.7334L112.084 59.4798L115.83 58.4759L114.826 54.7296Z" fill="#FFF05A"/>
<path d="M113.823 50.9832L110.076 51.9871L111.08 55.7334L114.826 54.7296L113.823 50.9832Z" fill="#BFB443"/>
<path d="M112.819 47.2369L109.072 48.2407L110.076 51.9871L113.822 50.9832L112.819 47.2369Z" fill="black"/>
<path d="M111.815 43.4905L108.068 44.4944L109.072 48.2408L112.819 47.2369L111.815 43.4905Z" fill="black"/>
<path d="M110.811 39.743L107.064 40.7468L108.068 44.4932L111.815 43.4894L110.811 39.743Z" fill="black"/>
<path d="M109.807 35.9967L106.061 37.0005L107.065 40.7479L110.811 39.7441L109.807 35.9967Z" fill="#BFB443"/>
<path d="M108.803 32.2503L105.057 33.2542L106.06 37.0005L109.807 35.9967L108.803 32.2503Z" fill="#FFF05A"/>
<path d="M107.799 28.503L104.053 29.5068L105.057 33.2532L108.803 32.2494L107.799 28.503Z" fill="#201F20"/>
<path d="M106.795 24.7564L103.049 25.7603L104.053 29.5066L107.799 28.5028L106.795 24.7564Z" fill="#FCF7FF"/>
<path d="M105.791 21.0101L102.045 22.0139L103.049 25.7603L106.795 24.7564L105.791 21.0101Z" fill="#7E7C80"/>
<path d="M105.791 21.0101L102.045 22.0139L103.049 25.7603L106.795 24.7564L105.791 21.0101Z" fill="black" fill-opacity="0.2"/>
<path d="M104.787 17.2637L101.041 18.2676L102.045 22.0139L105.791 21.0101L104.787 17.2637Z" fill="#F50076"/>
<path d="M103.783 13.5164L100.037 14.5203L101.041 18.2677L104.788 17.2638L103.783 13.5164Z" fill="#F50076"/>
<path d="M102.78 9.77009L99.0332 10.7739L100.037 14.5203L103.783 13.5165L102.78 9.77009Z" fill="#B80058"/>
<path d="M101.776 6.02375L98.0293 7.02759L99.0331 10.774L102.779 9.77012L101.776 6.02375Z" fill="#201F20"/>
<path d="M130.155 126.919L126.408 127.922L127.412 131.67L131.159 130.666L130.155 126.919Z" fill="#201F20"/>
<path d="M129.151 123.172L125.404 124.176L126.408 127.922L130.154 126.919L129.151 123.172Z" fill="#3F3E40"/>
<path d="M128.147 119.426L124.4 120.43L125.404 124.176L129.151 123.172L128.147 119.426Z" fill="#FCF7FF"/>
<path d="M127.143 115.68L123.396 116.683L124.4 120.43L128.147 119.426L127.143 115.68Z" fill="#FCF7FF"/>
<path d="M126.139 111.933L122.393 112.937L123.396 116.683L127.143 115.68L126.139 111.933Z" fill="#FCF7FF"/>
<path d="M125.135 108.187L121.389 109.191L122.393 112.937L126.139 111.933L125.135 108.187Z" fill="#7E7C80"/>
<path d="M125.135 108.187L121.389 109.191L122.393 112.937L126.139 111.933L125.135 108.187Z" fill="black" fill-opacity="0.2"/>
<path d="M124.131 104.439L120.385 105.443L121.389 109.191L125.135 108.187L124.131 104.439Z" fill="#201F20"/>
<path d="M123.127 100.693L119.381 101.697L120.385 105.443L124.131 104.439L123.127 100.693Z" fill="black"/>
<path d="M122.123 96.9466L118.377 97.9504L119.381 101.697L123.127 100.693L122.123 96.9466Z" fill="#BFB443"/>
<path d="M121.119 93.2003L117.373 94.2041L118.377 97.9505L122.123 96.9466L121.119 93.2003Z" fill="#FFF05A"/>
<path d="M120.116 89.4527L116.369 90.4565L117.373 94.2029L121.119 93.1991L120.116 89.4527Z" fill="#FFF05A"/>
<path d="M119.112 85.7064L115.365 86.7102L116.369 90.4566L120.115 89.4527L119.112 85.7064Z" fill="#BFB443"/>
<path d="M118.108 81.96L114.361 82.9639L115.365 86.7113L119.112 85.7075L118.108 81.96Z" fill="#FFF05A"/>
<path d="M117.104 78.2127L113.357 79.2166L114.361 82.9629L118.108 81.9591L117.104 78.2127Z" fill="#FCF7FF"/>
<path d="M116.1 74.4664L112.354 75.4702L113.357 79.2166L117.104 78.2127L116.1 74.4664Z" fill="#7E7C80"/>
<path d="M116.1 74.4664L112.354 75.4702L113.357 79.2166L117.104 78.2127L116.1 74.4664Z" fill="black" fill-opacity="0.2"/>
<path d="M115.096 70.7198L111.35 71.7236L112.353 75.47L116.1 74.4662L115.096 70.7198Z" fill="#FFF05A"/>
<path d="M114.092 66.9735L110.346 67.9773L111.35 71.7237L115.096 70.7198L114.092 66.9735Z" fill="#BFB443"/>
<path d="M113.088 63.2271L109.342 64.231L110.346 67.9773L114.092 66.9735L113.088 63.2271Z" fill="#FFF05A"/>
<path d="M112.084 59.4798L108.338 60.4836L109.342 64.2311L113.088 63.2272L112.084 59.4798Z" fill="#FFF05A"/>
<path d="M111.08 55.7335L107.334 56.7373L108.338 60.4837L112.084 59.4798L111.08 55.7335Z" fill="#BFB443"/>
<path d="M110.076 51.9871L106.33 52.991L107.334 56.7373L111.08 55.7335L110.076 51.9871Z" fill="black"/>
<path d="M109.073 48.2405L105.326 49.2444L106.33 52.9907L110.076 51.9869L109.073 48.2405Z" fill="black"/>
<path d="M108.069 44.4942L104.322 45.498L105.326 49.2444L109.072 48.2406L108.069 44.4942Z" fill="black"/>
<path d="M107.065 40.7469L103.318 41.7507L104.322 45.4971L108.069 44.4933L107.065 40.7469Z" fill="#BFB443"/>
<path d="M106.061 37.0006L102.314 38.0044L103.319 41.7518L107.065 40.748L106.061 37.0006Z" fill="#FFF05A"/>
<path d="M105.057 33.2542L101.311 34.2581L102.314 38.0044L106.061 37.0006L105.057 33.2542Z" fill="#FFF05A"/>
<path d="M104.053 29.5067L100.307 30.5105L101.31 34.2569L105.057 33.253L104.053 29.5067Z" fill="#201F20"/>
<path d="M103.049 25.7603L99.3027 26.7642L100.307 30.5105L104.053 29.5067L103.049 25.7603Z" fill="#FCF7FF"/>
<path d="M102.045 22.014L98.2988 23.0178L99.3027 26.7642L103.049 25.7604L102.045 22.014Z" fill="#7E7C80"/>
<path d="M102.045 22.014L98.2988 23.0178L99.3027 26.7642L103.049 25.7604L102.045 22.014Z" fill="black" fill-opacity="0.2"/>
<path d="M101.041 18.2676L97.2949 19.2715L98.2988 23.0178L102.045 22.014L101.041 18.2676Z" fill="#F50076"/>
<path d="M100.037 14.5203L96.291 15.5242L97.2951 19.2716L101.042 18.2678L100.037 14.5203Z" fill="#F50076"/>
<path d="M99.0335 10.7738L95.2871 11.7776L96.2909 15.524L100.037 14.5201L99.0335 10.7738Z" fill="#B80058"/>
<path d="M98.0296 7.02741L94.2832 8.03125L95.287 11.7776L99.0334 10.7738L98.0296 7.02741Z" fill="#201F20"/>
<path d="M126.407 127.922L122.66 128.926L123.664 132.674L127.411 131.67L126.407 127.922Z" fill="#201F20"/>
<path d="M125.403 124.176L121.656 125.18L122.66 128.926L126.406 127.922L125.403 124.176Z" fill="#3F3E40"/>
<path d="M124.401 120.43L120.654 121.434L121.658 125.18L125.405 124.176L124.401 120.43Z" fill="#201F20"/>
<path d="M123.397 116.683L119.65 117.687L120.654 121.434L124.401 120.43L123.397 116.683Z" fill="#201F20"/>
<path d="M122.393 112.937L118.646 113.941L119.65 117.687L123.397 116.683L122.393 112.937Z" fill="#201F20"/>
<path d="M121.389 109.191L117.643 110.194L118.646 113.941L122.393 112.937L121.389 109.191Z" fill="#201F20"/>
<path d="M120.385 105.443L116.639 106.447L117.643 110.194L121.389 109.191L120.385 105.443Z" fill="#201F20"/>
<path d="M119.381 101.697L115.635 102.701L116.639 106.447L120.385 105.443L119.381 101.697Z" fill="#BFB443"/>
<path d="M118.377 97.9505L114.631 98.9543L115.635 102.701L119.381 101.697L118.377 97.9505Z" fill="#FFF05A"/>
<path d="M117.373 94.2042L113.627 95.208L114.631 98.9544L118.377 97.9505L117.373 94.2042Z" fill="#FFF05A"/>
<path d="M116.369 90.4566L112.623 91.4604L113.627 95.2068L117.373 94.203L116.369 90.4566Z" fill="#BFB443"/>
<path d="M115.366 86.7103L111.619 87.7141L112.623 91.4605L116.369 90.4566L115.366 86.7103Z" fill="black"/>
<path d="M114.362 82.9639L110.615 83.9678L111.619 87.7152L115.366 86.7114L114.362 82.9639Z" fill="#7E7C80"/>
<path d="M114.362 82.9639L110.615 83.9678L111.619 87.7152L115.366 86.7114L114.362 82.9639Z" fill="black" fill-opacity="0.2"/>
<path d="M113.356 79.2164L109.609 80.2202L110.613 83.9666L114.36 82.9627L113.356 79.2164Z" fill="#201F20"/>
<path d="M112.354 75.47L108.607 76.4739L109.611 80.2202L113.358 79.2164L112.354 75.47Z" fill="#201F20"/>
<path d="M111.35 71.7237L107.604 72.7275L108.607 76.4739L112.354 75.4701L111.35 71.7237Z" fill="#BFB443"/>
<path d="M110.346 67.9774L106.6 68.9812L107.603 72.7276L111.35 71.7237L110.346 67.9774Z" fill="#FFF05A"/>
<path d="M109.342 64.231L105.596 65.2349L106.6 68.9812L110.346 67.9774L109.342 64.231Z" fill="#FFF05A"/>
<path d="M108.338 60.4837L104.592 61.4875L105.596 65.235L109.342 64.2311L108.338 60.4837Z" fill="#BFB443"/>
<path d="M107.334 56.7371L103.588 57.741L104.592 61.4873L108.338 60.4835L107.334 56.7371Z" fill="black"/>
<path d="M106.33 52.9908L102.584 53.9946L103.588 57.741L107.334 56.7372L106.33 52.9908Z" fill="black"/>
<path d="M105.326 49.2445L101.58 50.2483L102.584 53.9947L106.33 52.9908L105.326 49.2445Z" fill="black"/>
<path d="M104.323 45.4981L100.576 46.502L101.58 50.2483L105.326 49.2445L104.323 45.4981Z" fill="#BFB443"/>
<path d="M103.319 41.7508L99.5723 42.7546L100.576 46.501L104.322 45.4972L103.319 41.7508Z" fill="#FFF05A"/>
<path d="M102.315 38.0045L98.5684 39.0083L99.5725 42.7557L103.319 41.7519L102.315 38.0045Z" fill="#FFF05A"/>
<path d="M101.311 34.2579L97.5645 35.2617L98.5683 39.0081L102.315 38.0042L101.311 34.2579Z" fill="#BFB443"/>
<path d="M100.307 30.5106L96.5605 31.5144L97.5644 35.2608L101.311 34.2569L100.307 30.5106Z" fill="#201F20"/>
<path d="M99.303 26.7642L95.5566 27.7681L96.5605 31.5144L100.307 30.5106L99.303 26.7642Z" fill="#201F20"/>
<path d="M98.2991 23.0179L94.5527 24.0217L95.5566 27.7681L99.3029 26.7643L98.2991 23.0179Z" fill="#201F20"/>
<path d="M97.2952 19.2716L93.5488 20.2754L94.5527 24.0218L98.299 23.0179L97.2952 19.2716Z" fill="#F50076"/>
<path d="M96.2913 15.524L92.5449 16.5278L93.549 20.2753L97.2954 19.2714L96.2913 15.524Z" fill="#B80058"/>
<path d="M95.2874 11.7777L91.541 12.7815L92.5449 16.5279L96.2912 15.524L95.2874 11.7777Z" fill="#B80058"/>
<path d="M94.2835 8.03132L90.5371 9.03516L91.5409 12.7815L95.2873 11.7777L94.2835 8.03132Z" fill="#201F20"/>
<path d="M122.66 128.926L118.914 129.93L119.918 133.678L123.665 132.674L122.66 128.926Z" fill="#201F20"/>
<path d="M121.657 125.18L117.91 126.184L118.914 129.93L122.66 128.926L121.657 125.18Z" fill="#201F20"/>
<path d="M116.637 106.447L112.891 107.451L113.895 111.198L117.641 110.195L116.637 106.447Z" fill="#201F20"/>
<path d="M115.633 102.701L111.887 103.704L112.891 107.451L116.637 106.447L115.633 102.701Z" fill="#FFF05A"/>
<path d="M114.629 98.9542L110.883 99.958L111.887 103.704L115.633 102.701L114.629 98.9542Z" fill="#FFF05A"/>
<path d="M113.625 95.2078L109.879 96.2117L110.883 99.958L114.629 98.9542L113.625 95.2078Z" fill="#BFB443"/>
<path d="M112.621 91.4605L108.875 92.4644L109.879 96.2107L113.625 95.2069L112.621 91.4605Z" fill="black"/>
<path d="M111.617 87.7142L107.871 88.718L108.875 92.4644L112.621 91.4605L111.617 87.7142Z" fill="black"/>
<path d="M110.614 83.9678L106.867 84.9717L107.871 88.7191L111.618 87.7153L110.614 83.9678Z" fill="#201F20"/>
<path d="M107.602 72.7276L103.855 73.7314L104.859 77.4778L108.606 76.474L107.602 72.7276Z" fill="#201F20"/>
<path d="M106.598 68.9813L102.852 69.9851L103.855 73.7315L107.602 72.7276L106.598 68.9813Z" fill="#FFF05A"/>
<path d="M105.594 65.2349L101.848 66.2388L102.851 69.9851L106.598 68.9813L105.594 65.2349Z" fill="#BFB443"/>
<path d="M104.59 61.4874L100.844 62.4912L101.848 66.2386L105.594 65.2348L104.59 61.4874Z" fill="black"/>
<path d="M103.586 57.741L99.8398 58.7449L100.844 62.4912L104.59 61.4874L103.586 57.741Z" fill="black"/>
<path d="M102.582 53.9947L98.8359 54.9985L99.8398 58.7449L103.586 57.7411L102.582 53.9947Z" fill="black"/>
<path d="M101.578 50.2484L97.832 51.2522L98.8359 54.9986L102.582 53.9947L101.578 50.2484Z" fill="#BFB443"/>
<path d="M100.576 46.502L96.8301 47.5059L97.8339 51.2522L101.58 50.2484L100.576 46.502Z" fill="#FFF05A"/>
<path d="M99.5706 42.7545L95.8242 43.7583L96.8281 47.5047L100.574 46.5008L99.5706 42.7545Z" fill="#FFF05A"/>
<path d="M98.5667 39.0081L94.8203 40.012L95.8244 43.7594L99.5708 42.7555L98.5667 39.0081Z" fill="#BFB443"/>
<path d="M97.5628 35.2618L93.8164 36.2656L94.8202 40.012L98.5666 39.0082L97.5628 35.2618Z" fill="black"/>
<path d="M96.5589 31.5145L92.8125 32.5183L93.8163 36.2647L97.5627 35.2608L96.5589 31.5145Z" fill="#201F20"/>
<path d="M93.5471 20.2752L89.8008 21.2791L90.8046 25.0254L94.551 24.0216L93.5471 20.2752Z" fill="#201F20"/>
<path d="M92.5432 16.5279L88.7969 17.5317L89.801 21.2792L93.5474 20.2753L92.5432 16.5279Z" fill="#201F20"/>
<path d="M91.5393 12.7816L87.793 13.7854L88.7968 17.5318L92.5432 16.5279L91.5393 12.7816Z" fill="#201F20"/>
<path d="M112.892 107.451L109.145 108.455L110.149 112.202L113.896 111.198L112.892 107.451Z" fill="#201F20"/>
<path d="M111.888 103.704L108.141 104.708L109.144 108.455L112.892 107.451L111.888 103.704Z" fill="#FFF05A"/>
<path d="M110.884 99.958L107.137 100.962L108.141 104.709L111.888 103.704L110.884 99.958Z" fill="#BFB443"/>
<path d="M109.88 96.2117L106.133 97.2158L107.137 100.962L110.884 99.9581L109.88 96.2117Z" fill="black"/>
<path d="M108.876 92.4644L105.129 93.4685L106.133 97.2149L109.88 96.2108L108.876 92.4644Z" fill="black"/>
<path d="M107.872 88.7181L104.125 89.7222L105.129 93.4685L108.876 92.4644L107.872 88.7181Z" fill="black"/>
<path d="M106.869 84.9715L103.121 85.9756L104.125 89.723L107.873 88.7189L106.869 84.9715Z" fill="#201F20"/>
<path d="M103.857 73.7315L100.109 74.7356L101.113 78.482L104.861 77.4778L103.857 73.7315Z" fill="#201F20"/>
<path d="M102.853 69.9851L99.1055 70.9893L100.109 74.7356L103.857 73.7315L102.853 69.9851Z" fill="#BFB443"/>
<path d="M101.849 66.2388L98.1016 67.2429L99.1054 70.9893L102.853 69.9852L101.849 66.2388Z" fill="black"/>
<path d="M100.845 62.4912L97.0977 63.4954L98.1018 67.2428L101.849 66.2387L100.845 62.4912Z" fill="black"/>
<path d="M99.8412 58.7449L96.0938 59.749L97.0976 63.4954L100.845 62.4913L99.8412 58.7449Z" fill="black"/>
<path d="M98.8373 54.9986L95.0898 56.0027L96.0937 59.7491L99.8411 58.7449L98.8373 54.9986Z" fill="#BFB443"/>
<path d="M97.8334 51.2522L94.0859 52.2563L95.0898 56.0027L98.8372 54.9986L97.8334 51.2522Z" fill="#FFF05A"/>
<path d="M96.8294 47.5059L93.082 48.51L94.0859 52.2564L97.8333 51.2523L96.8294 47.5059Z" fill="#FFF05A"/>
<path d="M95.8255 43.7583L92.0781 44.7625L93.082 48.5088L96.8294 47.5047L95.8255 43.7583Z" fill="#BFB443"/>
<path d="M94.8216 40.012L91.0742 41.0161L92.0783 44.7635L95.8258 43.7594L94.8216 40.012Z" fill="black"/>
<path d="M93.8177 36.2657L90.0703 37.2698L91.0741 41.0161L94.8216 40.012L93.8177 36.2657Z" fill="black"/>
<path d="M92.8138 32.5183L89.0664 33.5225L90.0702 37.2688L93.8177 36.2647L92.8138 32.5183Z" fill="#201F20"/>
<path d="M109.145 108.455L105.398 109.459L106.403 113.206L110.149 112.202L109.145 108.455Z" fill="#201F20"/>
<path d="M108.141 104.709L104.395 105.712L105.398 109.459L109.145 108.455L108.141 104.709Z" fill="#BFB443"/>
<path d="M107.137 100.962L103.391 101.966L104.394 105.712L108.141 104.709L107.137 100.962Z" fill="black"/>
<path d="M106.133 97.2159L102.387 98.2197L103.391 101.966L107.137 100.962L106.133 97.2159Z" fill="black"/>
<path d="M105.129 93.4683L101.383 94.4722L102.387 98.2185L106.133 97.2147L105.129 93.4683Z" fill="black"/>
<path d="M104.125 89.722L100.379 90.7258L101.383 94.4722L105.129 93.4684L104.125 89.722Z" fill="#BFB443"/>
<path d="M103.121 85.9757L99.375 86.9795L100.379 90.7269L104.125 89.7231L103.121 85.9757Z" fill="#201F20"/>
<path d="M100.11 74.7354L96.3633 75.7393L97.3671 79.4856L101.113 78.4818L100.11 74.7354Z" fill="#201F20"/>
<path d="M99.1057 70.9891L95.3594 71.9929L96.3632 75.7393L100.11 74.7355L99.1057 70.9891Z" fill="black"/>
<path d="M98.1018 67.2427L94.3555 68.2466L95.3593 71.9929L99.1057 70.9891L98.1018 67.2427Z" fill="black"/>
<path d="M97.0979 63.4954L93.3516 64.4993L94.3557 68.2467L98.102 67.2429L97.0979 63.4954Z" fill="black"/>
<path d="M96.094 59.7491L92.3477 60.7529L93.3515 64.4993L97.0979 63.4955L96.094 59.7491Z" fill="#BFB443"/>
<path d="M95.0901 56.0028L91.3438 57.0066L92.3476 60.753L96.094 59.7491L95.0901 56.0028Z" fill="#FFF05A"/>
<path d="M94.0862 52.2562L90.3398 53.26L91.3437 57.0064L95.09 56.0025L94.0862 52.2562Z" fill="#FFF05A"/>
<path d="M93.0823 48.5098L89.3359 49.5137L90.3398 53.26L94.0861 52.2562L93.0823 48.5098Z" fill="#BFB443"/>
<path d="M92.0784 44.7625L88.332 45.7664L89.3359 49.5127L93.0822 48.5089L92.0784 44.7625Z" fill="black"/>
<path d="M91.0745 41.0162L87.3281 42.02L88.3322 45.7674L92.0786 44.7636L91.0745 41.0162Z" fill="black"/>
<path d="M90.0706 37.2698L86.3242 38.2737L87.3281 42.02L91.0744 41.0162L90.0706 37.2698Z" fill="black"/>
<path d="M89.0667 33.5223L85.3203 34.5261L86.3241 38.2725L90.0705 37.2687L89.0667 33.5223Z" fill="#201F20"/>
<path d="M105.397 109.459L101.65 110.463L102.655 114.21L106.401 113.206L105.397 109.459Z" fill="#201F20"/>
<path d="M104.393 105.712L100.646 106.716L101.65 110.463L105.397 109.459L104.393 105.712Z" fill="black"/>
<path d="M103.389 101.966L99.6426 102.97L100.646 106.716L104.393 105.713L103.389 101.966Z" fill="black"/>
<path d="M102.387 98.2198L98.6406 99.2236L99.6445 102.97L103.391 101.966L102.387 98.2198Z" fill="black"/>
<path d="M101.381 94.4722L97.6348 95.4761L98.6386 99.2224L102.385 98.2186L101.381 94.4722Z" fill="#BFB443"/>
<path d="M100.377 90.7259L96.6309 91.7297L97.6347 95.4761L101.381 94.4723L100.377 90.7259Z" fill="#FFF05A"/>
<path d="M99.3733 86.9796L95.627 87.9834L96.6311 91.7308L100.377 90.727L99.3733 86.9796Z" fill="#201F20"/>
<path d="M96.3616 75.7393L92.6152 76.7432L93.6191 80.4895L97.3654 79.4857L96.3616 75.7393Z" fill="#201F20"/>
<path d="M95.3577 71.993L91.6113 72.9968L92.6152 76.7432L96.3615 75.7394L95.3577 71.993Z" fill="black"/>
<path d="M94.3557 68.2467L90.6094 69.2505L91.6132 72.9969L95.3596 71.993L94.3557 68.2467Z" fill="black"/>
<path d="M93.3499 64.4993L89.6035 65.5032L90.6076 69.2506L94.354 68.2468L93.3499 64.4993Z" fill="#BFB443"/>
<path d="M92.346 60.7528L88.5996 61.7566L89.6034 65.503L93.3498 64.4991L92.346 60.7528Z" fill="#FFF05A"/>
<path d="M91.3421 57.0064L87.5957 58.0103L88.5995 61.7566L92.3459 60.7528L91.3421 57.0064Z" fill="#FFF05A"/>
<path d="M90.3401 53.2601L86.5938 54.2639L87.5976 58.0103L91.344 57.0064L90.3401 53.2601Z" fill="#BFB443"/>
<path d="M89.3362 49.5137L85.5898 50.5176L86.5937 54.2639L90.34 53.2601L89.3362 49.5137Z" fill="black"/>
<path d="M88.3304 45.7664L84.584 46.7703L85.5878 50.5166L89.3342 49.5128L88.3304 45.7664Z" fill="black"/>
<path d="M87.3264 42.0201L83.5801 43.0239L84.5842 46.7713L88.3306 45.7675L87.3264 42.0201Z" fill="black"/>
<path d="M86.3245 38.2735L82.5781 39.2773L83.582 43.0237L87.3283 42.0199L86.3245 38.2735Z" fill="#BFB443"/>
<path d="M85.3186 34.5262L81.5723 35.53L82.5761 39.2764L86.3225 38.2726L85.3186 34.5262Z" fill="#201F20"/>
<path d="M101.651 110.463L97.9043 111.467L98.9084 115.214L102.655 114.21L101.651 110.463Z" fill="#201F20"/>
<path d="M100.647 106.717L96.9004 107.72L97.9042 111.467L101.651 110.463L100.647 106.717Z" fill="black"/>
<path d="M99.6428 102.97L95.8965 103.974L96.9003 107.72L100.647 106.716L99.6428 102.97Z" fill="black"/>
<path d="M98.6389 99.2237L94.8926 100.228L95.8964 103.974L99.6428 102.97L98.6389 99.2237Z" fill="#BFB443"/>
<path d="M97.635 95.4764L93.8887 96.4802L94.8925 100.227L98.6389 99.2228L97.635 95.4764Z" fill="#FFF05A"/>
<path d="M96.6311 91.7301L92.8848 92.7339L93.8886 96.4803L97.635 95.4764L96.6311 91.7301Z" fill="#FFF05A"/>
<path d="M95.6272 87.9837L91.8809 88.9875L92.885 92.735L96.6313 91.7311L95.6272 87.9837Z" fill="#201F20"/>
<path d="M92.6155 76.7435L88.8691 77.7473L89.873 81.4937L93.6193 80.4898L92.6155 76.7435Z" fill="#201F20"/>
<path d="M91.6116 72.9971L87.8652 74.001L88.8691 77.7473L92.6154 76.7435L91.6116 72.9971Z" fill="black"/>
<path d="M90.6077 69.2508L86.8613 70.2546L87.8652 74.001L91.6115 72.9972L90.6077 69.2508Z" fill="#BFB443"/>
<path d="M89.6038 65.5032L85.8574 66.5071L86.8615 70.2545L90.6079 69.2507L89.6038 65.5032Z" fill="#FFF05A"/>
<path d="M88.5999 61.7569L84.8535 62.7607L85.8574 66.5071L89.6037 65.5033L88.5999 61.7569Z" fill="#FFF05A"/>
<path d="M87.596 58.0106L83.8496 59.0144L84.8534 62.7608L88.5998 61.7569L87.596 58.0106Z" fill="#BFB443"/>
<path d="M86.5921 54.2642L82.8457 55.2681L83.8495 59.0144L87.5959 58.0106L86.5921 54.2642Z" fill="black"/>
<path d="M85.5882 50.5179L81.8418 51.5217L82.8456 55.2681L86.592 54.2643L85.5882 50.5179Z" fill="black"/>
<path d="M84.5843 46.7706L80.8379 47.7744L81.8417 51.5208L85.5881 50.5169L84.5843 46.7706Z" fill="black"/>
<path d="M83.5803 43.024L79.834 44.0278L80.8381 47.7753L84.5845 46.7714L83.5803 43.024Z" fill="#BFB443"/>
<path d="M82.5764 39.2777L78.8301 40.2815L79.8339 44.0279L83.5803 43.024L82.5764 39.2777Z" fill="#FFF05A"/>
<path d="M81.5725 35.5303L77.8262 36.5342L78.83 40.2805L82.5764 39.2767L81.5725 35.5303Z" fill="#201F20"/>
<path d="M97.9046 111.467L94.1582 112.47L95.1623 116.218L98.9087 115.214L97.9046 111.467Z" fill="#201F20"/>
<path d="M96.9007 107.72L93.1543 108.724L94.1581 112.47L97.9045 111.467L96.9007 107.72Z" fill="black"/>
<path d="M95.8968 103.974L92.1504 104.978L93.1542 108.724L96.9006 107.72L95.8968 103.974Z" fill="#BFB443"/>
<path d="M94.8929 100.228L91.1465 101.231L92.1503 104.978L95.8967 103.974L94.8929 100.228Z" fill="#FFF05A"/>
<path d="M93.8889 96.4803L90.1426 97.4841L91.1464 101.23L94.8928 100.227L93.8889 96.4803Z" fill="#FFF05A"/>
<path d="M92.885 92.734L89.1387 93.7378L90.1425 97.4842L93.8889 96.4803L92.885 92.734Z" fill="#BFB443"/>
<path d="M91.8811 88.9874L88.1348 89.9912L89.1389 93.7386L92.8853 92.7348L91.8811 88.9874Z" fill="#201F20"/>
<path d="M88.8694 77.7474L85.123 78.7512L86.1269 82.4976L89.8732 81.4938L88.8694 77.7474Z" fill="#201F20"/>
<path d="M87.8655 74.001L84.1191 75.0049L85.123 78.7512L88.8693 77.7474L87.8655 74.001Z" fill="#BFB443"/>
<path d="M86.8616 70.2547L83.1152 71.2585L84.1191 75.0049L87.8654 74.0011L86.8616 70.2547Z" fill="#FFF05A"/>
<path d="M85.8577 66.5072L82.1113 67.511L83.1154 71.2584L86.8618 70.2546L85.8577 66.5072Z" fill="#FFF05A"/>
<path d="M84.8538 62.7608L81.1074 63.7646L82.1113 67.511L85.8576 66.5072L84.8538 62.7608Z" fill="#BFB443"/>
<path d="M83.8499 59.0145L80.1035 60.0183L81.1074 63.7647L84.8537 62.7608L83.8499 59.0145Z" fill="black"/>
<path d="M82.846 55.2681L79.0996 56.272L80.1034 60.0183L83.8498 59.0145L82.846 55.2681Z" fill="black"/>
<path d="M81.8421 51.5218L78.0957 52.5256L79.0995 56.272L82.8459 55.2682L81.8421 51.5218Z" fill="black"/>
<path d="M80.8382 47.7742L77.0918 48.7781L78.0956 52.5244L81.842 51.5206L80.8382 47.7742Z" fill="#BFB443"/>
<path d="M79.8343 44.0279L76.0879 45.0317L77.092 48.7792L80.8384 47.7753L79.8343 44.0279Z" fill="#FFF05A"/>
<path d="M78.8304 40.2816L75.084 41.2854L76.0878 45.0318L79.8342 44.0279L78.8304 40.2816Z" fill="#FFF05A"/>
<path d="M77.8264 36.5343L74.0801 37.5381L75.0839 41.2845L78.8303 40.2806L77.8264 36.5343Z" fill="#201F20"/>
<path d="M94.1565 112.471L90.4102 113.474L91.4143 117.222L95.1606 116.218L94.1565 112.471Z" fill="#201F20"/>
<path d="M93.1526 108.724L89.4062 109.728L90.4101 113.474L94.1565 112.471L93.1526 108.724Z" fill="#BFB443"/>
<path d="M92.1507 104.978L88.4043 105.982L89.4081 109.728L93.1545 108.724L92.1507 104.978Z" fill="#FFF05A"/>
<path d="M91.1468 101.232L87.4004 102.235L88.4042 105.982L92.1506 104.978L91.1468 101.232Z" fill="#FFF05A"/>
<path d="M90.1409 97.484L86.3945 98.4878L87.3984 102.234L91.1447 101.23L90.1409 97.484Z" fill="#BFB443"/>
<path d="M89.137 93.7376L85.3906 94.7415L86.3945 98.4878L90.1408 97.484L89.137 93.7376Z" fill="black"/>
<path d="M88.135 89.9913L84.3887 90.9951L85.3928 94.7425L89.1392 93.7387L88.135 89.9913Z" fill="#201F20"/>
<path d="M85.1214 78.751L81.375 79.7549L82.3788 83.5012L86.1252 82.4974L85.1214 78.751Z" fill="#201F20"/>
<path d="M84.1194 75.0047L80.373 76.0085L81.3769 79.7549L85.1232 78.7511L84.1194 75.0047Z" fill="#FFF05A"/>
<path d="M83.1155 71.2584L79.3691 72.2622L80.373 76.0086L84.1193 75.0047L83.1155 71.2584Z" fill="#FFF05A"/>
<path d="M82.1096 67.5111L78.3633 68.5149L79.3674 72.2623L83.1138 71.2585L82.1096 67.5111Z" fill="#BFB443"/>
<path d="M81.1057 63.7647L77.3594 64.7686L78.3632 68.5149L82.1096 67.5111L81.1057 63.7647Z" fill="black"/>
<path d="M80.1038 60.0184L76.3574 61.0222L77.3613 64.7686L81.1076 63.7647L80.1038 60.0184Z" fill="black"/>
<path d="M79.0999 56.272L75.3535 57.2759L76.3574 61.0222L80.1037 60.0184L79.0999 56.272Z" fill="black"/>
<path d="M78.096 52.5255L74.3496 53.5293L75.3534 57.2757L79.0998 56.2718L78.096 52.5255Z" fill="#BFB443"/>
<path d="M77.0901 48.7781L73.3438 49.782L74.3476 53.5283L78.094 52.5245L77.0901 48.7781Z" fill="#FFF05A"/>
<path d="M76.0882 45.0318L72.3418 46.0356L73.3459 49.7831L77.0923 48.7792L76.0882 45.0318Z" fill="#FFF05A"/>
<path d="M75.0843 41.2855L71.3379 42.2893L72.3417 46.0357L76.0881 45.0318L75.0843 41.2855Z" fill="#BFB443"/>
<path d="M74.0784 37.5379L70.332 38.5417L71.3359 42.2881L75.0822 41.2843L74.0784 37.5379Z" fill="#201F20"/>
<path d="M90.4115 113.474L86.6641 114.479L87.6682 118.226L91.4156 117.222L90.4115 113.474Z" fill="#201F20"/>
<path d="M89.4076 109.728L85.6602 110.732L86.664 114.479L90.4114 113.474L89.4076 109.728Z" fill="#FFF05A"/>
<path d="M88.4037 105.982L84.6562 106.986L85.6601 110.732L89.4075 109.728L88.4037 105.982Z" fill="#FFF05A"/>
<path d="M87.3998 102.235L83.6523 103.24L84.6562 106.986L88.4036 105.982L87.3998 102.235Z" fill="#BFB443"/>
<path d="M86.3959 98.4878L82.6484 99.4919L83.6523 103.238L87.3997 102.234L86.3959 98.4878Z" fill="black"/>
<path d="M85.392 94.7415L81.6445 95.7456L82.6484 99.492L86.3958 98.4879L85.392 94.7415Z" fill="black"/>
<path d="M84.388 90.9951L80.6406 91.9993L81.6447 95.7467L85.3922 94.7426L84.388 90.9951Z" fill="#201F20"/>
<path d="M81.3763 79.7549L77.6289 80.759L78.6327 84.5054L82.3802 83.5013L81.3763 79.7549Z" fill="#201F20"/>
<path d="M80.3724 76.0086L76.625 77.0127L77.6288 80.7591L81.3763 79.7549L80.3724 76.0086Z" fill="#FFF05A"/>
<path d="M79.3685 72.2622L75.6211 73.2664L76.6249 77.0127L80.3724 76.0086L79.3685 72.2622Z" fill="#BFB443"/>
<path d="M78.3646 68.5149L74.6172 69.519L75.6213 73.2665L79.3687 72.2623L78.3646 68.5149Z" fill="black"/>
<path d="M77.3607 64.7686L73.6133 65.7727L74.6171 69.5191L78.3645 68.5149L77.3607 64.7686Z" fill="black"/>
<path d="M76.3568 61.022L72.6094 62.0261L73.6132 65.7725L77.3606 64.7684L76.3568 61.022Z" fill="black"/>
<path d="M75.3529 57.2757L71.6055 58.2798L72.6093 62.0261L76.3567 61.022L75.3529 57.2757Z" fill="#BFB443"/>
<path d="M74.349 53.5293L70.6016 54.5334L71.6054 58.2798L75.3528 57.2757L74.349 53.5293Z" fill="#FFF05A"/>
<path d="M73.3451 49.782L69.5977 50.7861L70.6015 54.5325L74.3489 53.5284L73.3451 49.782Z" fill="#FFF05A"/>
<path d="M72.3412 46.0357L68.5938 47.0398L69.5979 50.7872L73.3453 49.7831L72.3412 46.0357Z" fill="#BFB443"/>
<path d="M71.3373 42.2893L67.5898 43.2935L68.5937 47.0398L72.3411 46.0357L71.3373 42.2893Z" fill="black"/>
<path d="M70.3334 38.5418L66.5859 39.5459L67.5898 43.2923L71.3372 42.2881L70.3334 38.5418Z" fill="#201F20"/>
<path d="M86.6643 114.479L82.918 115.482L83.9221 119.23L87.6684 118.226L86.6643 114.479Z" fill="#201F20"/>
<path d="M85.6604 110.732L81.9141 111.736L82.9179 115.482L86.6643 114.479L85.6604 110.732Z" fill="#FFF05A"/>
<path d="M84.6565 106.986L80.9102 107.99L81.914 111.736L85.6604 110.732L84.6565 106.986Z" fill="#BFB443"/>
<path d="M83.6526 103.239L79.9062 104.243L80.9101 107.99L84.6564 106.986L83.6526 103.239Z" fill="black"/>
<path d="M82.6487 99.492L78.9023 100.496L79.9062 104.242L83.6525 103.238L82.6487 99.492Z" fill="black"/>
<path d="M81.6448 95.7457L77.8984 96.7495L78.9023 100.496L82.6486 99.492L81.6448 95.7457Z" fill="black"/>
<path d="M80.6409 91.9993L76.8945 93.0032L77.8987 96.7506L81.645 95.7468L80.6409 91.9993Z" fill="#201F20"/>
<path d="M77.6292 80.7591L73.8828 81.7629L74.8866 85.5093L78.633 84.5055L77.6292 80.7591Z" fill="#201F20"/>
<path d="M76.6253 77.0128L72.8789 78.0166L73.8827 81.763L77.6291 80.7591L76.6253 77.0128Z" fill="#BFB443"/>
<path d="M75.6214 73.2664L71.875 74.2703L72.8788 78.0166L76.6252 77.0128L75.6214 73.2664Z" fill="black"/>
<path d="M74.6175 69.5189L70.8711 70.5227L71.8752 74.2701L75.6216 73.2663L74.6175 69.5189Z" fill="black"/>
<path d="M73.6135 65.7725L69.8672 66.7764L70.871 70.5227L74.6174 69.5189L73.6135 65.7725Z" fill="black"/>
<path d="M72.6096 62.0262L68.8633 63.03L69.8671 66.7764L73.6135 65.7726L72.6096 62.0262Z" fill="#BFB443"/>
<path d="M71.6057 58.2799L67.8594 59.2837L68.8632 63.0301L72.6096 62.0262L71.6057 58.2799Z" fill="#FFF05A"/>
<path d="M70.6018 54.5335L66.8555 55.5374L67.8593 59.2837L71.6057 58.2799L70.6018 54.5335Z" fill="#FFF05A"/>
<path d="M69.5979 50.7862L65.8516 51.79L66.8554 55.5364L70.6018 54.5326L69.5979 50.7862Z" fill="#BFB443"/>
<path d="M68.594 47.0396L64.8477 48.0435L65.8518 51.7909L69.5981 50.787L68.594 47.0396Z" fill="black"/>
<path d="M67.5901 43.2933L63.8438 44.2971L64.8476 48.0435L68.5939 47.0396L67.5901 43.2933Z" fill="black"/>
<path d="M66.5862 39.546L62.8398 40.5498L63.8437 44.2962L67.59 43.2923L66.5862 39.546Z" fill="#201F20"/>
<path d="M82.9163 115.482L79.1699 116.486L80.174 120.234L83.9204 119.23L82.9163 115.482Z" fill="#201F20"/>
<path d="M81.9143 111.736L78.168 112.74L79.1718 116.486L82.9182 115.482L81.9143 111.736Z" fill="#BFB443"/>
<path d="M80.9104 107.99L77.1641 108.993L78.1679 112.74L81.9143 111.736L80.9104 107.99Z" fill="black"/>
<path d="M79.9065 104.243L76.1602 105.247L77.164 108.993L80.9104 107.99L79.9065 104.243Z" fill="black"/>
<path d="M78.9007 100.496L75.1543 101.5L76.1581 105.246L79.9045 104.242L78.9007 100.496Z" fill="black"/>
<path d="M77.8987 96.7496L74.1523 97.7534L75.1562 101.5L78.9025 100.496L77.8987 96.7496Z" fill="#BFB443"/>
<path d="M76.8948 93.003L73.1484 94.0068L74.1526 97.7543L77.8989 96.7504L76.8948 93.003Z" fill="#201F20"/>
<path d="M73.8831 81.763L70.1367 82.7668L71.1406 86.5132L74.8869 85.5094L73.8831 81.763Z" fill="#201F20"/>
<path d="M72.8792 78.0167L69.1328 79.0205L70.1366 82.7669L73.883 81.763L72.8792 78.0167Z" fill="black"/>
<path d="M71.8753 74.2703L68.1289 75.2742L69.1327 79.0205L72.8791 78.0167L71.8753 74.2703Z" fill="black"/>
<path d="M70.8694 70.5228L67.123 71.5266L68.1272 75.274L71.8735 74.2702L70.8694 70.5228Z" fill="black"/>
<path d="M69.8675 66.7764L66.1211 67.7803L67.1249 71.5266L70.8713 70.5228L69.8675 66.7764Z" fill="#BFB443"/>
<path d="M68.8636 63.0301L65.1172 64.0339L66.121 67.7803L69.8674 66.7765L68.8636 63.0301Z" fill="#FFF05A"/>
<path d="M67.8597 59.2838L64.1133 60.2876L65.1171 64.034L68.8635 63.0301L67.8597 59.2838Z" fill="#FFF05A"/>
<path d="M66.8557 55.5374L63.1094 56.5413L64.1132 60.2876L67.8596 59.2838L66.8557 55.5374Z" fill="#BFB443"/>
<path d="M65.8518 51.7899L62.1055 52.7937L63.1093 56.5401L66.8557 55.5362L65.8518 51.7899Z" fill="black"/>
<path d="M64.8479 48.0435L61.1016 49.0474L62.1057 52.7948L65.8521 51.7909L64.8479 48.0435Z" fill="black"/>
<path d="M63.844 44.2972L60.0977 45.301L61.1015 49.0474L64.8479 48.0436L63.844 44.2972Z" fill="black"/>
<path d="M62.8382 40.5499L59.0918 41.5537L60.0956 45.3001L63.842 44.2962L62.8382 40.5499Z" fill="#201F20"/>
<path d="M79.1702 116.486L75.4238 117.49L76.4279 121.237L80.1743 120.234L79.1702 116.486Z" fill="#201F20"/>
<path d="M78.1663 112.74L74.4199 113.744L75.4238 117.49L79.1701 116.486L78.1663 112.74Z" fill="black"/>
<path d="M77.1624 108.993L73.416 109.997L74.4199 113.744L78.1662 112.74L77.1624 108.993Z" fill="black"/>
<path d="M76.1585 105.247L72.4121 106.251L73.4159 109.997L77.1623 108.994L76.1585 105.247Z" fill="black"/>
<path d="M75.1546 101.5L71.4082 102.503L72.412 106.25L76.1584 105.246L75.1546 101.5Z" fill="#BFB443"/>
<path d="M74.1507 97.7532L70.4043 98.7571L71.4081 102.503L75.1545 101.5L74.1507 97.7532Z" fill="#FFF05A"/>
<path d="M73.1468 94.0069L69.4004 95.0107L70.4045 98.7582L74.1509 97.7543L73.1468 94.0069Z" fill="#201F20"/>
<path d="M70.135 82.7667L66.3887 83.7705L67.3925 87.5169L71.1389 86.513L70.135 82.7667Z" fill="#201F20"/>
<path d="M69.1311 79.0203L65.3848 80.0242L66.3886 83.7705L70.135 82.7667L69.1311 79.0203Z" fill="black"/>
<path d="M68.1272 75.274L64.3809 76.2778L65.3847 80.0242L69.1311 79.0204L68.1272 75.274Z" fill="black"/>
<path d="M67.1233 71.5267L63.377 72.5305L64.3811 76.2779L68.1274 75.2741L67.1233 71.5267Z" fill="#BFB443"/>
<path d="M66.1194 67.7803L62.373 68.7842L63.3769 72.5305L67.1232 71.5267L66.1194 67.7803Z" fill="#FFF05A"/>
<path d="M65.1155 64.034L61.3691 65.0378L62.373 68.7842L66.1193 67.7804L65.1155 64.034Z" fill="#FFF05A"/>
<path d="M64.1116 60.2874L60.3652 61.2913L61.3691 65.0376L65.1154 64.0338L64.1116 60.2874Z" fill="#BFB443"/>
<path d="M63.1096 56.5411L59.3633 57.5449L60.3671 61.2913L64.1135 60.2875L63.1096 56.5411Z" fill="black"/>
<path d="M62.1038 52.7938L58.3574 53.7976L59.3613 57.544L63.1076 56.5401L62.1038 52.7938Z" fill="black"/>
<path d="M61.0999 49.0474L57.3535 50.0513L58.3576 53.7987L62.104 52.7949L61.0999 49.0474Z" fill="black"/>
<path d="M60.096 45.3011L56.3496 46.3049L57.3534 50.0513L61.0998 49.0475L60.096 45.3011Z" fill="#BFB443"/>
<path d="M59.0921 41.5535L55.3457 42.5574L56.3495 46.3037L60.0959 45.2999L59.0921 41.5535Z" fill="#201F20"/>
<path d="M75.4241 117.49L71.6777 118.494L72.6819 122.241L76.4282 121.237L75.4241 117.49Z" fill="#201F20"/>
<path d="M74.4202 113.744L70.6738 114.748L71.6777 118.494L75.424 117.49L74.4202 113.744Z" fill="black"/>
<path d="M73.4163 109.997L69.6699 111.001L70.6738 114.748L74.4201 113.744L73.4163 109.997Z" fill="black"/>
<path d="M72.4124 106.251L68.666 107.255L69.6699 111.001L73.4162 109.997L72.4124 106.251Z" fill="#BFB443"/>
<path d="M71.4085 102.503L67.6621 103.507L68.6659 107.254L72.4123 106.25L71.4085 102.503Z" fill="#FFF05A"/>
<path d="M70.4046 98.7572L66.6582 99.761L67.662 103.507L71.4084 102.504L70.4046 98.7572Z" fill="#FFF05A"/>
<path d="M69.4007 95.0108L65.6543 96.0146L66.6584 99.7621L70.4048 98.7582L69.4007 95.0108Z" fill="#201F20"/>
<path d="M66.3889 83.7706L62.6426 84.7744L63.6464 88.5208L67.3928 87.5169L66.3889 83.7706Z" fill="#201F20"/>
<path d="M65.385 80.0242L61.6387 81.0281L62.6425 84.7744L66.3889 83.7706L65.385 80.0242Z" fill="black"/>
<path d="M64.3811 76.2779L60.6348 77.2817L61.6386 81.0281L65.385 80.0243L64.3811 76.2779Z" fill="#BFB443"/>
<path d="M63.3772 72.5306L59.6309 73.5344L60.635 77.2818L64.3813 76.278L63.3772 72.5306Z" fill="#FFF05A"/>
<path d="M62.3733 68.784L58.627 69.7878L59.6308 73.5342L63.3772 72.5304L62.3733 68.784Z" fill="#FFF05A"/>
<path d="M61.3694 65.0377L57.623 66.0415L58.6269 69.7879L62.3732 68.784L61.3694 65.0377Z" fill="#BFB443"/>
<path d="M60.3655 61.2913L56.6191 62.2952L57.623 66.0415L61.3693 65.0377L60.3655 61.2913Z" fill="black"/>
<path d="M59.3616 57.545L55.6152 58.5488L56.6191 62.2952L60.3654 61.2914L59.3616 57.545Z" fill="black"/>
<path d="M58.3577 53.7977L54.6113 54.8015L55.6152 58.5479L59.3615 57.544L58.3577 53.7977Z" fill="black"/>
<path d="M57.3538 50.0513L53.6074 51.0552L54.6115 54.8026L58.3579 53.7988L57.3538 50.0513Z" fill="#BFB443"/>
<path d="M56.3499 46.3048L52.6035 47.3086L53.6074 51.055L57.3537 50.0511L56.3499 46.3048Z" fill="#FFF05A"/>
<path d="M55.346 42.5574L51.5996 43.5613L52.6034 47.3076L56.3498 46.3038L55.346 42.5574Z" fill="#201F20"/>
<path d="M71.678 118.494L67.9316 119.498L68.9358 123.245L72.6821 122.241L71.678 118.494Z" fill="#201F20"/>
<path d="M70.6741 114.747L66.9277 115.751L67.9316 119.498L71.6779 118.494L70.6741 114.747Z" fill="black"/>
<path d="M69.6702 111.001L65.9238 112.005L66.9277 115.751L70.674 114.747L69.6702 111.001Z" fill="#BFB443"/>
<path d="M68.6663 107.255L64.9199 108.259L65.9238 112.005L69.6701 111.001L68.6663 107.255Z" fill="#FFF05A"/>
<path d="M67.6624 103.507L63.916 104.511L64.9199 108.258L68.6662 107.254L67.6624 103.507Z" fill="#FFF05A"/>
<path d="M66.6585 99.7611L62.9121 100.765L63.9159 104.511L67.6623 103.507L66.6585 99.7611Z" fill="#BFB443"/>
<path d="M65.6546 96.0147L61.9082 97.0186L62.9123 100.766L66.6587 99.7621L65.6546 96.0147Z" fill="#201F20"/>
<path d="M62.6428 84.7745L58.8965 85.7783L59.9003 89.5247L63.6467 88.5209L62.6428 84.7745Z" fill="#201F20"/>
<path d="M61.6389 81.0281L57.8926 82.032L58.8964 85.7783L62.6428 84.7745L61.6389 81.0281Z" fill="#BFB443"/>
<path d="M60.635 77.2818L56.8887 78.2856L57.8925 82.032L61.6389 81.0282L60.635 77.2818Z" fill="#FFF05A"/>
<path d="M59.6311 73.5343L55.8848 74.5381L56.8889 78.2855L60.6352 77.2817L59.6311 73.5343Z" fill="#FFF05A"/>
<path d="M58.6272 69.7879L54.8809 70.7917L55.8847 74.5381L59.6311 73.5343L58.6272 69.7879Z" fill="#BFB443"/>
<path d="M57.6233 66.0416L53.877 67.0454L54.8808 70.7918L58.6272 69.7879L57.6233 66.0416Z" fill="black"/>
<path d="M56.6194 62.2952L52.873 63.2991L53.8769 67.0454L57.6232 66.0416L56.6194 62.2952Z" fill="black"/>
<path d="M55.6155 58.5489L51.8691 59.5527L52.873 63.2991L56.6193 62.2953L55.6155 58.5489Z" fill="black"/>
<path d="M54.6116 54.8013L50.8652 55.8052L51.8691 59.5515L55.6154 58.5477L54.6116 54.8013Z" fill="#BFB443"/>
<path d="M53.6077 51.055L49.8613 52.0588L50.8654 55.8063L54.6118 54.8024L53.6077 51.055Z" fill="#FFF05A"/>
<path d="M52.6038 47.3087L48.8574 48.3125L49.8613 52.0589L53.6076 51.055L52.6038 47.3087Z" fill="#FFF05A"/>
<path d="M51.5999 43.5614L47.8535 44.5652L48.8574 48.3116L52.6037 47.3077L51.5999 43.5614Z" fill="#201F20"/>
<path d="M67.931 119.498L64.1836 120.502L65.1877 124.249L68.9351 123.245L67.931 119.498Z" fill="#201F20"/>
<path d="M66.9271 115.751L63.1797 116.755L64.1835 120.502L67.9309 119.498L66.9271 115.751Z" fill="#BFB443"/>
<path d="M65.9232 112.005L62.1758 113.009L63.1796 116.755L66.927 115.751L65.9232 112.005Z" fill="#FFF05A"/>
<path d="M64.9213 108.259L61.1738 109.263L62.1777 113.009L65.9251 112.005L64.9213 108.259Z" fill="#FFF05A"/>
<path d="M63.9154 104.511L60.168 105.515L61.1718 109.262L64.9192 108.258L63.9154 104.511Z" fill="#BFB443"/>
<path d="M62.9115 100.765L59.1641 101.769L60.1679 105.515L63.9153 104.511L62.9115 100.765Z" fill="black"/>
<path d="M61.9076 97.0183L58.1602 98.0225L59.1643 101.77L62.9117 100.766L61.9076 97.0183Z" fill="#201F20"/>
<path d="M58.8959 85.7784L55.1484 86.7825L56.1523 90.5288L59.8997 89.5247L58.8959 85.7784Z" fill="#201F20"/>
<path d="M57.892 82.032L54.1445 83.0361L55.1484 86.7825L58.8958 85.7784L57.892 82.032Z" fill="#FFF05A"/>
<path d="M56.89 78.2857L53.1426 79.2898L54.1464 83.0362L57.8938 82.032L56.89 78.2857Z" fill="#FFF05A"/>
<path d="M55.8841 74.5381L52.1367 75.5422L53.1408 79.2897L56.8883 78.2855L55.8841 74.5381Z" fill="#BFB443"/>
<path d="M54.8802 70.7918L51.1328 71.7959L52.1366 75.5423L55.8841 74.5381L54.8802 70.7918Z" fill="black"/>
<path d="M53.8763 67.0454L50.1289 68.0496L51.1327 71.7959L54.8802 70.7918L53.8763 67.0454Z" fill="black"/>
<path d="M52.8744 63.2991L49.127 64.3032L50.1308 68.0496L53.8782 67.0455L52.8744 63.2991Z" fill="black"/>
<path d="M51.8705 59.5528L48.123 60.5569L49.1269 64.3033L52.8743 63.2991L51.8705 59.5528Z" fill="#BFB443"/>
<path d="M50.8646 55.8052L47.1172 56.8093L48.121 60.5557L51.8684 59.5516L50.8646 55.8052Z" fill="#FFF05A"/>
<path d="M49.8607 52.0589L46.1133 53.063L47.1174 56.8104L50.8648 55.8063L49.8607 52.0589Z" fill="#FFF05A"/>
<path d="M48.8588 48.3125L45.1113 49.3167L46.1152 53.063L49.8626 52.0589L48.8588 48.3125Z" fill="#BFB443"/>
<path d="M47.8529 44.5652L44.1055 45.5693L45.1093 49.3157L48.8567 48.3116L47.8529 44.5652Z" fill="#201F20"/>
<path d="M70.2073 142.981L66.4609 143.985L67.4651 147.732L71.2114 146.728L70.2073 142.981Z" fill="#201F20"/>
<path d="M69.2034 139.235L65.457 140.239L66.4609 143.985L70.2072 142.981L69.2034 139.235Z" fill="#201F20"/>
<path d="M64.1839 120.502L60.4375 121.506L61.4416 125.253L65.188 124.249L64.1839 120.502Z" fill="#201F20"/>
<path d="M63.18 116.755L59.4336 117.759L60.4374 121.506L64.1838 120.502L63.18 116.755Z" fill="#FFF05A"/>
<path d="M62.1761 113.009L58.4297 114.013L59.4335 117.759L63.1799 116.755L62.1761 113.009Z" fill="#FFF05A"/>
<path d="M61.1721 109.263L57.4258 110.267L58.4296 114.013L62.176 113.009L61.1721 109.263Z" fill="#BFB443"/>
<path d="M60.1682 105.515L56.4219 106.519L57.4257 110.265L61.1721 109.262L60.1682 105.515Z" fill="black"/>
<path d="M59.1643 101.769L55.418 102.773L56.4218 106.519L60.1682 105.515L59.1643 101.769Z" fill="black"/>
<path d="M58.1604 98.0225L54.4141 99.0264L55.4182 102.774L59.1645 101.77L58.1604 98.0225Z" fill="#201F20"/>
<path d="M55.1487 86.7823L51.4023 87.7861L52.4062 91.5325L56.1525 90.5287L55.1487 86.7823Z" fill="#201F20"/>
<path d="M54.1448 83.036L50.3984 84.0398L51.4023 87.7862L55.1486 86.7823L54.1448 83.036Z" fill="#FFF05A"/>
<path d="M53.1409 79.2896L49.3945 80.2935L50.3984 84.0398L54.1447 83.036L53.1409 79.2896Z" fill="#BFB443"/>
<path d="M52.137 75.5423L48.3906 76.5461L49.3947 80.2936L53.1411 79.2897L52.137 75.5423Z" fill="black"/>
<path d="M51.1331 71.796L47.3867 72.7998L48.3906 76.5462L52.1369 75.5423L51.1331 71.796Z" fill="black"/>
<path d="M50.1292 68.0496L46.3828 69.0535L47.3866 72.7998L51.133 71.796L50.1292 68.0496Z" fill="black"/>
<path d="M49.1253 64.303L45.3789 65.3069L46.3827 69.0532L50.1291 68.0494L49.1253 64.303Z" fill="#BFB443"/>
<path d="M48.1214 60.5567L44.375 61.5605L45.3788 65.3069L49.1252 64.3031L48.1214 60.5567Z" fill="#FFF05A"/>
<path d="M47.1175 56.8094L43.3711 57.8132L44.3749 61.5596L48.1213 60.5558L47.1175 56.8094Z" fill="#FFF05A"/>
<path d="M46.1136 53.0631L42.3672 54.0669L43.3713 57.8143L47.1177 56.8105L46.1136 53.0631Z" fill="#BFB443"/>
<path d="M45.1096 49.3167L41.3633 50.3206L42.3671 54.0669L46.1135 53.0631L45.1096 49.3167Z" fill="black"/>
<path d="M44.1057 45.5692L40.3594 46.573L41.3632 50.3194L45.1096 49.3155L44.1057 45.5692Z" fill="#201F20"/>
<path d="M41.094 34.3301L37.3477 35.334L38.3515 39.0803L42.0979 38.0765L41.094 34.3301Z" fill="#201F20"/>
<path d="M40.0901 30.5828L36.3438 31.5867L37.3479 35.3341L41.0942 34.3303L40.0901 30.5828Z" fill="#201F20"/>
<path d="M39.0862 26.8363L35.3398 27.8401L36.3437 31.5865L40.09 30.5826L39.0862 26.8363Z" fill="#201F20"/>
<path d="M66.4612 143.985L62.7148 144.989L63.719 148.736L67.4653 147.732L66.4612 143.985Z" fill="#201F20"/>
<path d="M65.4573 140.239L61.7109 141.242L62.7148 144.989L66.4611 143.985L65.4573 140.239Z" fill="#3F3E40"/>
<path d="M64.4534 136.492L60.707 137.496L61.7109 141.242L65.4572 140.239L64.4534 136.492Z" fill="#201F20"/>
<path d="M63.4495 132.746L59.7031 133.75L60.707 137.496L64.4533 136.492L63.4495 132.746Z" fill="#201F20"/>
<path d="M62.4456 128.999L58.6992 130.003L59.7031 133.75L63.4494 132.746L62.4456 128.999Z" fill="#201F20"/>
<path d="M61.4417 125.253L57.6953 126.257L58.6991 130.003L62.4455 128.999L61.4417 125.253Z" fill="#201F20"/>
<path d="M60.4378 121.506L56.6914 122.51L57.6955 126.257L61.4419 125.253L60.4378 121.506Z" fill="#201F20"/>
<path d="M59.4339 117.759L55.6875 118.763L56.6913 122.51L60.4377 121.506L59.4339 117.759Z" fill="#FFF05A"/>
<path d="M58.43 114.013L54.6836 115.017L55.6874 118.763L59.4338 117.759L58.43 114.013Z" fill="#BFB443"/>
<path d="M57.4261 110.267L53.6797 111.271L54.6835 115.017L58.4299 114.013L57.4261 110.267Z" fill="black"/>
<path d="M56.4221 106.519L52.6758 107.523L53.6796 111.269L57.426 110.265L56.4221 106.519Z" fill="black"/>
<path d="M55.4182 102.773L51.6719 103.777L52.6757 107.523L56.4221 106.519L55.4182 102.773Z" fill="black"/>
<path d="M54.4143 99.0264L50.668 100.03L51.6721 103.778L55.4185 102.774L54.4143 99.0264Z" fill="#FFF05A"/>
<path d="M53.4104 95.2789L49.6641 96.2827L50.6679 100.029L54.4143 99.0252L53.4104 95.2789Z" fill="#201F20"/>
<path d="M52.4065 91.5325L48.6602 92.5364L49.664 96.2827L53.4104 95.2789L52.4065 91.5325Z" fill="#201F20"/>
<path d="M51.4026 87.7862L47.6562 88.79L48.6601 92.5364L52.4065 91.5326L51.4026 87.7862Z" fill="#FFF05A"/>
<path d="M50.3987 84.0399L46.6523 85.0437L47.6562 88.7901L51.4025 87.7862L50.3987 84.0399Z" fill="#BFB443"/>
<path d="M49.3948 80.2935L45.6484 81.2974L46.6523 85.0437L50.3986 84.0399L49.3948 80.2935Z" fill="black"/>
<path d="M48.3909 76.5462L44.6445 77.55L45.6486 81.2975L49.395 80.2936L48.3909 76.5462Z" fill="black"/>
<path d="M47.387 72.7996L43.6406 73.8035L44.6445 77.5498L48.3908 76.546L47.387 72.7996Z" fill="black"/>
<path d="M46.3831 69.0533L42.6367 70.0571L43.6406 73.8035L47.3869 72.7997L46.3831 69.0533Z" fill="#BFB443"/>
<path d="M45.3792 65.307L41.6328 66.3108L42.6366 70.0572L46.383 69.0533L45.3792 65.307Z" fill="#FFF05A"/>
<path d="M44.3753 61.5606L40.6289 62.5645L41.6327 66.3108L45.3791 65.307L44.3753 61.5606Z" fill="#FFF05A"/>
<path d="M43.3714 57.8133L39.625 58.8171L40.6288 62.5635L44.3752 61.5597L43.3714 57.8133Z" fill="#BFB443"/>
<path d="M42.3675 54.067L38.6211 55.0708L39.6252 58.8182L43.3716 57.8144L42.3675 54.067Z" fill="black"/>
<path d="M41.3636 50.3204L37.6172 51.3242L38.621 55.0706L42.3674 54.0667L41.3636 50.3204Z" fill="black"/>
<path d="M40.3596 46.5731L36.6133 47.5769L37.6171 51.3233L41.3635 50.3194L40.3596 46.5731Z" fill="#201F20"/>
<path d="M39.3557 42.8267L35.6094 43.8306L36.6132 47.5769L40.3596 46.5731L39.3557 42.8267Z" fill="#201F20"/>
<path d="M38.3518 39.0804L34.6055 40.0842L35.6093 43.8306L39.3557 42.8268L38.3518 39.0804Z" fill="#201F20"/>
<path d="M37.3479 35.3341L33.6016 36.3379L34.6054 40.0843L38.3518 39.0804L37.3479 35.3341Z" fill="#F50076"/>
<path d="M36.344 31.5865L32.5977 32.5903L33.6018 36.3378L37.3481 35.3339L36.344 31.5865Z" fill="#F50076"/>
<path d="M35.3401 27.8402L31.5938 28.844L32.5976 32.5904L36.344 31.5865L35.3401 27.8402Z" fill="#F50076"/>
<path d="M34.3362 24.0938L30.5898 25.0977L31.5937 28.844L35.34 27.8402L34.3362 24.0938Z" fill="#201F20"/>
<path d="M62.7151 144.989L58.9688 145.993L59.9729 149.74L63.7192 148.736L62.7151 144.989Z" fill="#201F20"/>
<path d="M61.7112 141.242L57.9648 142.246L58.9687 145.992L62.715 144.989L61.7112 141.242Z" fill="#3F3E40"/>
<path d="M60.7073 137.496L56.9609 138.5L57.9648 142.246L61.7111 141.242L60.7073 137.496Z" fill="#FCF7FF"/>
<path d="M59.7034 133.75L55.957 134.753L56.9609 138.5L60.7072 137.496L59.7034 133.75Z" fill="#FCF7FF"/>
<path d="M58.6995 130.003L54.9531 131.007L55.957 134.753L59.7033 133.75L58.6995 130.003Z" fill="#FCF7FF"/>
<path d="M57.6956 126.257L53.9492 127.261L54.9531 131.007L58.6994 130.003L57.6956 126.257Z" fill="#7E7C80"/>
<path d="M57.6956 126.257L53.9492 127.261L54.9531 131.007L58.6994 130.003L57.6956 126.257Z" fill="black" fill-opacity="0.2"/>
<path d="M56.6917 122.51L52.9453 123.513L53.9494 127.261L57.6958 126.257L56.6917 122.51Z" fill="#201F20"/>
<path d="M55.6878 118.763L51.9414 119.767L52.9452 123.513L56.6916 122.509L55.6878 118.763Z" fill="#BFB443"/>
<path d="M54.6839 115.017L50.9375 116.021L51.9413 119.767L55.6877 118.763L54.6839 115.017Z" fill="black"/>
<path d="M53.68 111.27L49.9336 112.274L50.9374 116.021L54.6838 115.017L53.68 111.27Z" fill="black"/>
<path d="M52.6761 107.523L48.9297 108.527L49.9335 112.273L53.6799 111.269L52.6761 107.523Z" fill="black"/>
<path d="M51.6721 103.777L47.9258 104.781L48.9296 108.527L52.676 107.523L51.6721 103.777Z" fill="#BFB443"/>
<path d="M50.6682 100.03L46.9219 101.034L47.926 104.782L51.6724 103.778L50.6682 100.03Z" fill="#FFF05A"/>
<path d="M49.6643 96.2828L45.918 97.2866L46.9218 101.033L50.6682 100.029L49.6643 96.2828Z" fill="#FCF7FF"/>
<path d="M48.6604 92.5364L44.9141 93.5403L45.9179 97.2866L49.6643 96.2828L48.6604 92.5364Z" fill="#7E7C80"/>
<path d="M48.6604 92.5364L44.9141 93.5403L45.9179 97.2866L49.6643 96.2828L48.6604 92.5364Z" fill="black" fill-opacity="0.2"/>
<path d="M47.6565 88.7901L43.9102 89.7939L44.914 93.5403L48.6604 92.5365L47.6565 88.7901Z" fill="#3F3E40"/>
<path d="M46.6526 85.0438L42.9062 86.0476L43.9101 89.794L47.6565 88.7901L46.6526 85.0438Z" fill="black"/>
<path d="M45.6487 81.2974L41.9023 82.3013L42.9062 86.0476L46.6525 85.0438L45.6487 81.2974Z" fill="black"/>
<path d="M44.6448 77.5499L40.8984 78.5537L41.9026 82.3011L45.6489 81.2973L44.6448 77.5499Z" fill="black"/>
<path d="M43.6409 73.8035L39.8945 74.8074L40.8984 78.5537L44.6447 77.5499L43.6409 73.8035Z" fill="#BFB443"/>
<path d="M42.637 70.0572L38.8906 71.061L39.8945 74.8074L43.6408 73.8036L42.637 70.0572Z" fill="#FFF05A"/>
<path d="M41.6331 66.3109L37.8867 67.3147L38.8906 71.0611L42.6369 70.0572L41.6331 66.3109Z" fill="#FFF05A"/>
<path d="M40.6292 62.5645L36.8828 63.5684L37.8866 67.3147L41.633 66.3109L40.6292 62.5645Z" fill="#BFB443"/>
<path d="M39.6253 58.817L35.8789 59.8208L36.8827 63.5672L40.6291 62.5633L39.6253 58.817Z" fill="black"/>
<path d="M38.6214 55.0706L34.875 56.0745L35.8791 59.8219L39.6255 58.818L38.6214 55.0706Z" fill="black"/>
<path d="M37.6175 51.3243L33.8711 52.3281L34.8749 56.0745L38.6213 55.0707L37.6175 51.3243Z" fill="black"/>
<path d="M36.6136 47.577L32.8672 48.5808L33.871 52.3272L37.6174 51.3233L36.6136 47.577Z" fill="#201F20"/>
<path d="M35.6096 43.8306L31.8633 44.8345L32.8671 48.5808L36.6135 47.577L35.6096 43.8306Z" fill="#FCF7FF"/>
<path d="M34.6057 40.0841L30.8594 41.0879L31.8632 44.8343L35.6096 43.8304L34.6057 40.0841Z" fill="#7E7C80"/>
<path d="M34.6057 40.0841L30.8594 41.0879L31.8632 44.8343L35.6096 43.8304L34.6057 40.0841Z" fill="black" fill-opacity="0.2"/>
<path d="M33.6018 36.3377L29.8555 37.3416L30.8593 41.0879L34.6057 40.0841L33.6018 36.3377Z" fill="#F50076"/>
<path d="M32.5979 32.5904L28.8516 33.5942L29.8557 37.3417L33.602 36.3378L32.5979 32.5904Z" fill="#F50076"/>
<path d="M31.594 28.8441L27.8477 29.8479L28.8515 33.5943L32.5979 32.5904L31.594 28.8441Z" fill="#B80058"/>
<path d="M30.5901 25.0977L26.8438 26.1016L27.8476 29.8479L31.594 28.8441L30.5901 25.0977Z" fill="#201F20"/>
<path d="M58.9671 145.993L55.2207 146.997L56.2248 150.744L59.9712 149.74L58.9671 145.993Z" fill="#201F20"/>
<path d="M57.9632 142.246L54.2168 143.25L55.2206 146.997L58.967 145.993L57.9632 142.246Z" fill="#3F3E40"/>
<path d="M56.9593 138.5L53.2129 139.504L54.2167 143.25L57.9631 142.246L56.9593 138.5Z" fill="#FCF7FF"/>
<path d="M55.9553 134.754L52.209 135.758L53.2128 139.504L56.9592 138.5L55.9553 134.754Z" fill="#FCF7FF"/>
<path d="M54.9514 131.007L51.2051 132.011L52.2089 135.758L55.9553 134.754L54.9514 131.007Z" fill="#FCF7FF"/>
<path d="M53.9475 127.261L50.2012 128.265L51.205 132.011L54.9514 131.007L53.9475 127.261Z" fill="#7E7C80"/>
<path d="M53.9475 127.261L50.2012 128.265L51.205 132.011L54.9514 131.007L53.9475 127.261Z" fill="black" fill-opacity="0.2"/>
<path d="M52.9436 123.513L49.1973 124.517L50.2014 128.265L53.9477 127.261L52.9436 123.513Z" fill="#201F20"/>
<path d="M51.9397 119.767L48.1934 120.771L49.1972 124.517L52.9436 123.514L51.9397 119.767Z" fill="black"/>
<path d="M50.9358 116.021L47.1895 117.025L48.1933 120.771L51.9397 119.767L50.9358 116.021Z" fill="black"/>
<path d="M49.9319 112.274L46.1855 113.278L47.1894 117.025L50.9357 116.021L49.9319 112.274Z" fill="black"/>
<path d="M48.928 108.527L45.1816 109.531L46.1855 113.277L49.9318 112.274L48.928 108.527Z" fill="#BFB443"/>
<path d="M47.9241 104.781L44.1777 105.785L45.1816 109.531L48.9279 108.527L47.9241 104.781Z" fill="#FFF05A"/>
<path d="M46.9202 101.034L43.1738 102.038L44.1779 105.786L47.9243 104.782L46.9202 101.034Z" fill="#FFF05A"/>
<path d="M45.9163 97.2869L42.1699 98.2908L43.1738 102.037L46.9201 101.033L45.9163 97.2869Z" fill="#FCF7FF"/>
<path d="M44.9124 93.5406L41.166 94.5444L42.1699 98.2908L45.9162 97.287L44.9124 93.5406Z" fill="#7E7C80"/>
<path d="M44.9124 93.5406L41.166 94.5444L42.1699 98.2908L45.9162 97.287L44.9124 93.5406Z" fill="black" fill-opacity="0.2"/>
<path d="M43.9085 89.7943L40.1621 90.7981L41.1659 94.5445L44.9123 93.5406L43.9085 89.7943Z" fill="#3F3E40"/>
<path d="M42.9046 86.0479L39.1582 87.0518L40.162 90.7981L43.9084 89.7943L42.9046 86.0479Z" fill="black"/>
<path d="M41.9007 82.3016L38.1543 83.3054L39.1581 87.0518L42.9045 86.048L41.9007 82.3016Z" fill="black"/>
<path d="M40.8968 78.554L37.1504 79.5579L38.1545 83.3053L41.9009 82.3014L40.8968 78.554Z" fill="#BFB443"/>
<path d="M39.8928 74.8077L36.1465 75.8115L37.1503 79.5579L40.8967 78.5541L39.8928 74.8077Z" fill="#FFF05A"/>
<path d="M38.8889 71.0614L35.1426 72.0652L36.1464 75.8116L39.8928 74.8077L38.8889 71.0614Z" fill="#FFF05A"/>
<path d="M37.885 67.315L34.1387 68.3188L35.1425 72.0652L38.8889 71.0614L37.885 67.315Z" fill="#BFB443"/>
<path d="M36.8811 63.5687L33.1348 64.5725L34.1386 68.3189L37.885 67.315L36.8811 63.5687Z" fill="black"/>
<path d="M35.8772 59.8211L32.1309 60.825L33.1347 64.5713L36.8811 63.5675L35.8772 59.8211Z" fill="black"/>
<path d="M34.8733 56.0748L31.127 57.0786L32.1311 60.826L35.8774 59.8222L34.8733 56.0748Z" fill="black"/>
<path d="M33.8694 52.3284L30.123 53.3323L31.1269 57.0786L34.8732 56.0748L33.8694 52.3284Z" fill="#BFB443"/>
<path d="M32.8655 48.5811L29.1191 49.585L30.123 53.3313L33.8693 52.3275L32.8655 48.5811Z" fill="#201F20"/>
<path d="M31.8616 44.8345L28.1152 45.8384L29.1191 49.5847L32.8654 48.5809L31.8616 44.8345Z" fill="#FCF7FF"/>
<path d="M30.8577 41.0882L27.1113 42.092L28.1152 45.8384L31.8615 44.8346L30.8577 41.0882Z" fill="#7E7C80"/>
<path d="M30.8577 41.0882L27.1113 42.092L28.1152 45.8384L31.8615 44.8346L30.8577 41.0882Z" fill="black" fill-opacity="0.2"/>
<path d="M29.8538 37.3419L26.1074 38.3457L27.1113 42.0921L30.8576 41.0882L29.8538 37.3419Z" fill="#F50076"/>
<path d="M28.8499 33.5946L25.1035 34.5984L26.1076 38.3458L29.854 37.342L28.8499 33.5946Z" fill="#F50076"/>
<path d="M27.846 29.8482L24.0996 30.8521L25.1034 34.5984L28.8498 33.5946L27.846 29.8482Z" fill="#B80058"/>
<path d="M26.8421 26.1019L23.0957 27.1057L24.0995 30.8521L27.8459 29.8482L26.8421 26.1019Z" fill="#201F20"/>
<path d="M55.221 146.997L51.4746 148L52.4787 151.748L56.2251 150.744L55.221 146.997Z" fill="#201F20"/>
<path d="M54.2171 143.25L50.4707 144.254L51.4745 148.001L55.2209 146.997L54.2171 143.25Z" fill="#3F3E40"/>
<path d="M53.2132 139.504L49.4668 140.508L50.4706 144.254L54.217 143.25L53.2132 139.504Z" fill="#201F20"/>
<path d="M52.2093 135.758L48.4629 136.761L49.4667 140.508L53.2131 139.504L52.2093 135.758Z" fill="#201F20"/>
<path d="M51.2054 132.011L47.459 133.015L48.4628 136.762L52.2092 135.758L51.2054 132.011Z" fill="#201F20"/>
<path d="M50.2014 128.265L46.4551 129.269L47.4589 133.015L51.2053 132.011L50.2014 128.265Z" fill="#201F20"/>
<path d="M49.1975 124.517L45.4512 125.521L46.4553 129.269L50.2017 128.265L49.1975 124.517Z" fill="#201F20"/>
<path d="M48.1936 120.771L44.4473 121.775L45.4511 125.521L49.1975 124.517L48.1936 120.771Z" fill="black"/>
<path d="M47.1897 117.025L43.4434 118.029L44.4472 121.775L48.1936 120.771L47.1897 117.025Z" fill="black"/>
<path d="M46.1858 113.278L42.4395 114.282L43.4433 118.029L47.1897 117.025L46.1858 113.278Z" fill="#BFB443"/>
<path d="M45.1819 109.531L41.4355 110.535L42.4394 114.281L46.1857 113.277L45.1819 109.531Z" fill="#FFF05A"/>
<path d="M44.178 105.784L40.4316 106.788L41.4355 110.535L45.1818 109.531L44.178 105.784Z" fill="#FFF05A"/>
<path d="M43.1741 102.038L39.4277 103.042L40.4319 106.789L44.1782 105.786L43.1741 102.038Z" fill="#FFF05A"/>
<path d="M42.1702 98.2908L38.4238 99.2947L39.4277 103.041L43.174 102.037L42.1702 98.2908Z" fill="#201F20"/>
<path d="M41.1663 94.5445L37.4199 95.5483L38.4238 99.2947L42.1701 98.2909L41.1663 94.5445Z" fill="#201F20"/>
<path d="M40.1624 90.7979L36.416 91.8018L37.4199 95.5481L41.1662 94.5443L40.1624 90.7979Z" fill="#3F3E40"/>
<path d="M39.1585 87.0516L35.4121 88.0554L36.4159 91.8018L40.1623 90.798L39.1585 87.0516Z" fill="black"/>
<path d="M38.1546 83.3052L34.4082 84.3091L35.412 88.0554L39.1584 87.0516L38.1546 83.3052Z" fill="#BFB443"/>
<path d="M37.1507 79.5579L33.4043 80.5618L34.4084 84.3092L38.1548 83.3054L37.1507 79.5579Z" fill="#FFF05A"/>
<path d="M36.1468 75.8116L32.4004 76.8154L33.4042 80.5618L37.1506 79.558L36.1468 75.8116Z" fill="#FFF05A"/>
<path d="M35.1429 72.0653L31.3965 73.0691L32.4003 76.8155L36.1467 75.8116L35.1429 72.0653Z" fill="#BFB443"/>
<path d="M34.1389 68.3189L30.3926 69.3228L31.3964 73.0691L35.1428 72.0653L34.1389 68.3189Z" fill="black"/>
<path d="M33.135 64.5723L29.3887 65.5762L30.3925 69.3225L34.1389 68.3187L33.135 64.5723Z" fill="black"/>
<path d="M32.1311 60.825L28.3848 61.8289L29.3886 65.5752L33.135 64.5714L32.1311 60.825Z" fill="black"/>
<path d="M31.1272 57.0787L27.3809 58.0825L28.385 61.8299L32.1313 60.8261L31.1272 57.0787Z" fill="#BFB443"/>
<path d="M30.1233 53.3323L26.377 54.3362L27.3808 58.0825L31.1272 57.0787L30.1233 53.3323Z" fill="#FFF05A"/>
<path d="M29.1194 49.5848L25.373 50.5886L26.3769 54.335L30.1232 53.3312L29.1194 49.5848Z" fill="#201F20"/>
<path d="M28.1155 45.8384L24.3691 46.8423L25.373 50.5887L29.1193 49.5848L28.1155 45.8384Z" fill="#201F20"/>
<path d="M27.1116 42.0921L23.3652 43.0959L24.3691 46.8423L28.1154 45.8385L27.1116 42.0921Z" fill="#201F20"/>
<path d="M26.1077 38.3458L22.3613 39.3496L23.3652 43.096L27.1115 42.0921L26.1077 38.3458Z" fill="#F50076"/>
<path d="M25.1038 34.5985L21.3574 35.6023L22.3615 39.3497L26.1079 38.3459L25.1038 34.5985Z" fill="#B80058"/>
<path d="M24.0999 30.8519L20.3535 31.8557L21.3574 35.6021L25.1037 34.5982L24.0999 30.8519Z" fill="#B80058"/>
<path d="M23.096 27.1055L19.3496 28.1094L20.3534 31.8557L24.0998 30.8519L23.096 27.1055Z" fill="#201F20"/>
<path d="M51.4759 148L47.7285 149.004L48.7326 152.752L52.4801 151.748L51.4759 148Z" fill="#201F20"/>
<path d="M50.472 144.254L46.7246 145.258L47.7284 149.004L51.4759 148L50.472 144.254Z" fill="#201F20"/>
<path d="M45.4525 125.521L41.7051 126.525L42.7092 130.273L46.4566 129.268L45.4525 125.521Z" fill="#201F20"/>
<path d="M44.4486 121.775L40.7012 122.779L41.705 126.525L45.4524 125.521L44.4486 121.775Z" fill="black"/>
<path d="M43.4447 118.028L39.6973 119.032L40.7011 122.779L44.4485 121.775L43.4447 118.028Z" fill="#BFB443"/>
<path d="M42.4408 114.282L38.6934 115.286L39.6972 119.032L43.4446 118.028L42.4408 114.282Z" fill="#FFF05A"/>
<path d="M41.4369 110.534L37.6895 111.539L38.6933 115.285L42.4407 114.281L41.4369 110.534Z" fill="#FFF05A"/>
<path d="M40.433 106.788L36.6855 107.792L37.6894 111.539L41.4368 110.534L40.433 106.788Z" fill="#BFB443"/>
<path d="M39.4291 103.042L35.6816 104.046L36.6858 107.793L40.4332 106.789L39.4291 103.042Z" fill="#201F20"/>
<path d="M36.4173 91.8015L32.6699 92.8057L33.6738 96.552L37.4212 95.5479L36.4173 91.8015Z" fill="#201F20"/>
<path d="M35.4134 88.0552L31.666 89.0593L32.6699 92.8057L36.4173 91.8016L35.4134 88.0552Z" fill="#BFB443"/>
<path d="M34.4095 84.3089L30.6621 85.313L31.6659 89.0594L35.4134 88.0552L34.4095 84.3089Z" fill="#FFF05A"/>
<path d="M33.4056 80.5616L29.6582 81.5657L30.6623 85.3131L34.4097 84.309L33.4056 80.5616Z" fill="#FFF05A"/>
<path d="M32.4017 76.815L28.6543 77.8191L29.6581 81.5655L33.4056 80.5613L32.4017 76.815Z" fill="#BFB443"/>
<path d="M31.3978 73.0686L27.6504 74.0728L28.6542 77.8191L32.4016 76.815L31.3978 73.0686Z" fill="black"/>
<path d="M30.3939 69.3223L26.6465 70.3264L27.6503 74.0728L31.3977 73.0687L30.3939 69.3223Z" fill="black"/>
<path d="M29.39 65.576L25.6426 66.5801L26.6464 70.3264L30.3938 69.3223L29.39 65.576Z" fill="black"/>
<path d="M28.3861 61.8286L24.6387 62.8328L25.6425 66.5791L29.3899 65.575L28.3861 61.8286Z" fill="#BFB443"/>
<path d="M27.3822 58.0823L23.6348 59.0864L24.6389 62.8338L28.3863 61.8297L27.3822 58.0823Z" fill="#FFF05A"/>
<path d="M26.3783 54.3357L22.6309 55.3398L23.6347 59.0862L27.3821 58.0821L26.3783 54.3357Z" fill="#FFF05A"/>
<path d="M25.3744 50.5884L21.627 51.5925L22.6308 55.3389L26.3782 54.3348L25.3744 50.5884Z" fill="#201F20"/>
<path d="M22.3627 39.3494L18.6152 40.3535L19.6191 44.0999L23.3665 43.0958L22.3627 39.3494Z" fill="#201F20"/>
<path d="M21.3588 35.6018L17.6113 36.606L18.6154 40.3534L22.3629 39.3493L21.3588 35.6018Z" fill="#201F20"/>
<path d="M20.3548 31.8555L16.6074 32.8596L17.6113 36.606L21.3587 35.6019L20.3548 31.8555Z" fill="#201F20"/>
<path d="M41.7034 126.525L37.957 127.529L38.9611 131.277L42.7075 130.273L41.7034 126.525Z" fill="#201F20"/>
<path d="M40.6995 122.779L36.9531 123.783L37.957 127.529L41.7033 126.525L40.6995 122.779Z" fill="#BFB443"/>
<path d="M39.6956 119.033L35.9492 120.036L36.9531 123.783L40.6994 122.779L39.6956 119.033Z" fill="#FFF05A"/>
<path d="M38.6917 115.286L34.9453 116.29L35.9491 120.036L39.6955 119.033L38.6917 115.286Z" fill="#FFF05A"/>
<path d="M37.6878 111.539L33.9414 112.543L34.9452 116.289L38.6916 115.285L37.6878 111.539Z" fill="#BFB443"/>
<path d="M36.6839 107.793L32.9375 108.796L33.9413 112.543L37.6877 111.539L36.6839 107.793Z" fill="black"/>
<path d="M35.68 104.046L31.9336 105.05L32.9377 108.797L36.6841 107.794L35.68 104.046Z" fill="#201F20"/>
<path d="M32.6682 92.806L28.9219 93.8098L29.9257 97.5562L33.6721 96.5523L32.6682 92.806Z" fill="#201F20"/>
<path d="M31.6643 89.0596L27.918 90.0635L28.9218 93.8098L32.6682 92.806L31.6643 89.0596Z" fill="#FFF05A"/>
<path d="M30.6604 85.3133L26.9141 86.3171L27.9179 90.0635L31.6643 89.0597L30.6604 85.3133Z" fill="#FFF05A"/>
<path d="M29.6565 81.5657L25.9102 82.5696L26.9143 86.317L30.6606 85.3132L29.6565 81.5657Z" fill="#BFB443"/>
<path d="M28.6526 77.8194L24.9062 78.8232L25.9101 82.5696L29.6565 81.5658L28.6526 77.8194Z" fill="black"/>
<path d="M27.6487 74.0731L23.9023 75.0769L24.9062 78.8233L28.6525 77.8194L27.6487 74.0731Z" fill="black"/>
<path d="M26.6448 70.3267L22.8984 71.3306L23.9023 75.0769L27.6486 74.0731L26.6448 70.3267Z" fill="black"/>
<path d="M25.6409 66.5804L21.8945 67.5842L22.8984 71.3306L26.6447 70.3268L25.6409 66.5804Z" fill="#BFB443"/>
<path d="M24.637 62.8331L20.8906 63.8369L21.8945 67.5833L25.6408 66.5794L24.637 62.8331Z" fill="#FFF05A"/>
<path d="M23.6331 59.0865L19.8867 60.0903L20.8908 63.8378L24.6372 62.8339L23.6331 59.0865Z" fill="#FFF05A"/>
<path d="M22.6292 55.3402L18.8828 56.344L19.8866 60.0904L23.633 59.0865L22.6292 55.3402Z" fill="#FFF05A"/>
<path d="M21.6253 51.5928L17.8789 52.5967L18.8827 56.343L22.6291 55.3392L21.6253 51.5928Z" fill="#201F20"/>
<path d="M37.9573 127.529L34.2109 128.533L35.2151 132.28L38.9614 131.277L37.9573 127.529Z" fill="#201F20"/>
<path d="M36.9534 123.783L33.207 124.787L34.2109 128.533L37.9572 127.529L36.9534 123.783Z" fill="#FFF05A"/>
<path d="M35.9495 120.036L32.2031 121.04L33.207 124.787L36.9533 123.783L35.9495 120.036Z" fill="#FFF05A"/>
<path d="M34.9456 116.29L31.1992 117.294L32.2031 121.04L35.9494 120.036L34.9456 116.29Z" fill="#BFB443"/>
<path d="M33.9417 112.543L30.1953 113.547L31.1991 117.293L34.9455 116.289L33.9417 112.543Z" fill="black"/>
<path d="M32.9378 108.796L29.1914 109.8L30.1952 113.547L33.9416 112.543L32.9378 108.796Z" fill="black"/>
<path d="M31.9339 105.05L28.1875 106.054L29.1916 109.801L32.938 108.797L31.9339 105.05Z" fill="#201F20"/>
<path d="M28.9221 93.8099L25.1758 94.8137L26.1796 98.5601L29.926 97.5563L28.9221 93.8099Z" fill="#201F20"/>
<path d="M27.9182 90.0635L24.1719 91.0674L25.1757 94.8137L28.9221 93.8099L27.9182 90.0635Z" fill="#FFF05A"/>
<path d="M26.9143 86.3172L23.168 87.321L24.1718 91.0674L27.9182 90.0636L26.9143 86.3172Z" fill="#BFB443"/>
<path d="M25.9104 82.5697L22.1641 83.5735L23.1682 87.3209L26.9145 86.3171L25.9104 82.5697Z" fill="black"/>
<path d="M24.9065 78.8233L21.1602 79.8271L22.164 83.5735L25.9104 82.5697L24.9065 78.8233Z" fill="black"/>
<path d="M23.9026 75.077L20.1562 76.0808L21.1601 79.8272L24.9065 78.8233L23.9026 75.077Z" fill="black"/>
<path d="M22.8987 71.3306L19.1523 72.3345L20.1562 76.0808L23.9025 75.077L22.8987 71.3306Z" fill="#BFB443"/>
<path d="M21.8948 67.5843L18.1484 68.5881L19.1523 72.3345L22.8986 71.3307L21.8948 67.5843Z" fill="#FFF05A"/>
<path d="M20.8909 63.8367L17.1445 64.8406L18.1484 68.5869L21.8947 67.5831L20.8909 63.8367Z" fill="#FFF05A"/>
<path d="M19.887 60.0904L16.1406 61.0942L17.1447 64.8417L20.8911 63.8378L19.887 60.0904Z" fill="#FFF05A"/>
<path d="M18.8831 56.3441L15.1367 57.3479L16.1406 61.0943L19.8869 60.0904L18.8831 56.3441Z" fill="#BFB443"/>
<path d="M17.8792 52.5968L14.1328 53.6006L15.1366 57.347L18.883 56.3431L17.8792 52.5968Z" fill="#201F20"/>
<path d="M34.2112 128.533L30.4648 129.537L31.469 133.284L35.2153 132.28L34.2112 128.533Z" fill="#201F20"/>
<path d="M33.2073 124.787L29.4609 125.791L30.4648 129.537L34.2111 128.533L33.2073 124.787Z" fill="#FFF05A"/>
<path d="M32.2034 121.04L28.457 122.044L29.4609 125.791L33.2072 124.787L32.2034 121.04Z" fill="#BFB443"/>
<path d="M31.1995 117.294L27.4531 118.298L28.457 122.044L32.2033 121.04L31.1995 117.294Z" fill="black"/>
<path d="M30.1956 113.546L26.4492 114.55L27.4531 118.297L31.1994 117.293L30.1956 113.546Z" fill="black"/>
<path d="M29.1917 109.8L25.4453 110.804L26.4491 114.55L30.1955 113.546L29.1917 109.8Z" fill="black"/>
<path d="M28.1878 106.054L24.4414 107.058L25.4455 110.805L29.1919 109.801L28.1878 106.054Z" fill="#201F20"/>
<path d="M25.1761 94.8135L21.4297 95.8174L22.4335 99.5637L26.1799 98.5599L25.1761 94.8135Z" fill="#201F20"/>
<path d="M24.1721 91.0672L20.4258 92.071L21.4296 95.8174L25.176 94.8136L24.1721 91.0672Z" fill="#BFB443"/>
<path d="M23.1682 87.3209L19.4219 88.3247L20.4257 92.0711L24.1721 91.0672L23.1682 87.3209Z" fill="black"/>
<path d="M22.1643 83.5736L18.418 84.5774L19.4221 88.3248L23.1685 87.321L22.1643 83.5736Z" fill="black"/>
<path d="M21.1604 79.8272L17.4141 80.8311L18.4179 84.5774L22.1643 83.5736L21.1604 79.8272Z" fill="black"/>
<path d="M20.1565 76.0809L16.4102 77.0847L17.414 80.8311L21.1604 79.8272L20.1565 76.0809Z" fill="#BFB443"/>
<path d="M19.1526 72.3343L15.4062 73.3381L16.4101 77.0845L20.1565 76.0807L19.1526 72.3343Z" fill="#FFF05A"/>
<path d="M18.1487 68.588L14.4023 69.5918L15.4062 73.3382L19.1525 72.3343L18.1487 68.588Z" fill="#FFF05A"/>
<path d="M17.1448 64.8406L13.3984 65.8445L14.4023 69.5908L18.1486 68.587L17.1448 64.8406Z" fill="#FFF05A"/>
<path d="M16.1409 61.0943L12.3945 62.0981L13.3986 65.8456L17.145 64.8417L16.1409 61.0943Z" fill="#BFB443"/>
<path d="M15.137 57.348L11.3906 58.3518L12.3945 62.0982L16.1408 61.0943L15.137 57.348Z" fill="black"/>
<path d="M14.1331 53.6004L10.3867 54.6042L11.3906 58.3506L15.1369 57.3468L14.1331 53.6004Z" fill="#201F20"/>
<path d="M30.4651 129.537L26.7188 130.541L27.7229 134.288L31.4692 133.284L30.4651 129.537Z" fill="#201F20"/>
<path d="M29.4612 125.791L25.7148 126.794L26.7187 130.541L30.465 129.537L29.4612 125.791Z" fill="#201F20"/>
<path d="M28.4573 122.044L24.7109 123.048L25.7148 126.794L29.4611 125.791L28.4573 122.044Z" fill="#201F20"/>
<path d="M27.4534 118.298L23.707 119.302L24.7109 123.048L28.4572 122.044L27.4534 118.298Z" fill="#201F20"/>
<path d="M26.4495 114.55L22.7031 115.554L23.707 119.301L27.4533 118.297L26.4495 114.55Z" fill="#201F20"/>
<path d="M25.4456 110.804L21.6992 111.808L22.7031 115.554L26.4494 114.55L25.4456 110.804Z" fill="#201F20"/>
<path d="M21.43 95.8175L17.6836 96.8213L18.6874 100.568L22.4338 99.5638L21.43 95.8175Z" fill="#201F20"/>
<path d="M20.4261 92.0711L16.6797 93.075L17.6835 96.8213L21.4299 95.8175L20.4261 92.0711Z" fill="#201F20"/>
<path d="M19.4221 88.3248L15.6758 89.3286L16.6796 93.075L20.426 92.0711L19.4221 88.3248Z" fill="#201F20"/>
<path d="M18.4182 84.5775L14.6719 85.5813L15.676 89.3287L19.4224 88.3249L18.4182 84.5775Z" fill="#201F20"/>
<path d="M17.4143 80.8309L13.668 81.8347L14.6718 85.5811L18.4182 84.5772L17.4143 80.8309Z" fill="#201F20"/>
<path d="M16.4104 77.0845L12.6641 78.0884L13.6679 81.8347L17.4143 80.8309L16.4104 77.0845Z" fill="#201F20"/>
<path d="M15.4065 73.3382L11.6602 74.342L12.664 78.0884L16.4104 77.0846L15.4065 73.3382Z" fill="#201F20"/>
<path d="M14.4026 69.5919L10.6562 70.5957L11.6601 74.3421L15.4065 73.3382L14.4026 69.5919Z" fill="#201F20"/>
<path d="M13.3987 65.8446L9.65234 66.8484L10.6562 70.5948L14.4025 69.5909L13.3987 65.8446Z" fill="#201F20"/>
<path d="M12.3948 62.0982L8.64844 63.1021L9.65256 66.8495L13.3989 65.8456L12.3948 62.0982Z" fill="#201F20"/>
<path d="M11.3909 58.3516L7.64453 59.3555L8.64837 63.1018L12.3947 62.098L11.3909 58.3516Z" fill="#201F20"/>
</g>
<defs>
<clipPath id="clip0_1801_7972">
<rect width="128" height="128" fill="#E2DADB" transform="translate(0.617188 33.1289) rotate(-15)"/>
</clipPath>
</defs>
</svg>
