<svg width="16" height="19" viewBox="0 0 16 19" fill="none" xmlns="http://www.w3.org/2000/svg">
<path d="M1 11H2V12V13H3V14H4V15V16H5V17H6V18H7H9H11H13V17H14V16V15H15V8V7H14V8V9V10H13V9V8V7V6H12H11V7V8V9H10V8V7V6V5H9H8V6V7V8H7V7V6V5V4V3V2V1H6H5V11H4V10H3V9H2H1V10V11Z" fill="#FCF7FF"/>
<path d="M1 11H2V12H1V11Z" fill="black"/>
<path d="M0 9H1V10H0V9Z" fill="black"/>
<path d="M7 2H8V3H7V2Z" fill="black"/>
<path d="M7 6H8V7H7V6Z" fill="black"/>
<path d="M10 7H11V8H10V7Z" fill="black"/>
<path d="M13 8H14V9H13V8Z" fill="black"/>
<path d="M0 8H1V9H0V8Z" fill="black"/>
<path d="M7 1H8V2H7V1Z" fill="black"/>
<path d="M7 5H8V6H7V5Z" fill="black"/>
<path d="M10 6H11V7H10V6Z" fill="black"/>
<path d="M13 7H14V8H13V7Z" fill="black"/>
<path d="M13 6H14V7H13V6Z" fill="black"/>
<path d="M1 8H2V9H1V8Z" fill="black"/>
<path d="M2 8H3V9H2V8Z" fill="black"/>
<path d="M10 5H11V6H10V5Z" fill="black"/>
<path d="M8 4H9V5H8V4Z" fill="black"/>
<path d="M9 4H10V5H9V4Z" fill="black"/>
<path d="M7 4H8V5H7V4Z" fill="black"/>
<path d="M5 0H6V1H5V0Z" fill="black"/>
<path d="M6 0H7V1H6V0Z" fill="black"/>
<path d="M11 5H12V6H11V5Z" fill="black"/>
<path d="M12 5H13V6H12V5Z" fill="black"/>
<path d="M3 9H4V10H3V9Z" fill="black"/>
<path d="M15 7H16V8H15V7Z" fill="black"/>
<path d="M4 1H5V11H4V1Z" fill="black"/>
<path d="M15 8H16V15H15V8Z" fill="black"/>
<path d="M3 14H4V15H3V14Z" fill="black"/>
<path d="M14 15H15V16H14V15Z" fill="black"/>
<path d="M5 17H6V18H5V17Z" fill="black"/>
<path d="M13 17H14V18H13V17Z" fill="black"/>
<path d="M1 12H2V13H1V12Z" fill="black"/>
<path d="M0 10H1V11H0V10Z" fill="black"/>
<path d="M7 3H8V4H7V3Z" fill="black"/>
<path d="M7 7H8V8H7V7Z" fill="black"/>
<path d="M10 8H11V9H10V8Z" fill="black"/>
<path d="M13 9H14V10H13V9Z" fill="black"/>
<path d="M3 15H4V16H3V15Z" fill="black"/>
<path d="M14 16H15V17H14V16Z" fill="black"/>
<path d="M7 18H9V19H7V18Z" fill="black"/>
<path d="M9 18H11V19H9V18Z" fill="black"/>
<path d="M11 18H13V19H11V18Z" fill="black"/>
<path d="M2 13H3V14H2V13Z" fill="black"/>
<path d="M4 16H5V17H4V16Z" fill="black"/>
<path d="M7 19V18H6V19H7Z" fill="black"/>
<path d="M14 6H15V7H14V6Z" fill="black"/>
<path d="M6 18H5V19H6V18Z" fill="black"/>
</svg>
