<svg width="14" height="14" viewBox="0 0 14 14" fill="none" xmlns="http://www.w3.org/2000/svg">
<path fill-rule="evenodd" clip-rule="evenodd" d="M0 0H2V2H0V0ZM4 4H2V2H4V4ZM6 6H4V4H6V6ZM8 6H6V8L4 8V10L2 10V12H0V14H2V12H4V10H6V8H8L8 10H10L10 12H12V14H14V12H12V10L10 10V8L8 8V6ZM10 4L10 6H8V4H10ZM12 2V4H10V2H12ZM12 2V0H14V2H12Z" fill="#7E7C80"/>
<path fill-rule="evenodd" clip-rule="evenodd" d="M0 0H2V2H0V0ZM4 4H2V2H4V4ZM6 6H4V4H6V6ZM8 6H6V8L4 8V10L2 10V12H0V14H2V12H4V10H6V8H8L8 10H10L10 12H12V14H14V12H12V10L10 10V8L8 8V6ZM10 4L10 6H8V4H10ZM12 2V4H10V2H12ZM12 2V0H14V2H12Z" fill="black" fill-opacity="0.2"/>
</svg>
