<svg width="32" height="32" viewBox="0 0 32 32" fill="none" xmlns="http://www.w3.org/2000/svg">
<path d="M25.6387 8.01597C23.3307 6.15064 20.056 5.80664 20.056 5.80664L20 7.99997C17.3613 7.99997 14.6387 7.99997 12 7.99997L11.9853 5.94397C11.9853 5.94397 8.67067 6.15064 6.33067 8.04131C5.108 9.17597 2.66667 15.8146 2.66667 21.5533C2.66667 21.6546 2.692 21.7533 2.74267 21.8413C4.42933 24.8186 9.028 25.5973 10.0747 25.6306C10.0813 25.632 10.0867 25.632 10.0933 25.632C10.2787 25.632 10.4747 25.5573 10.5613 25.392L11.6053 23.412C10.744 23.1933 9.85467 22.9333 8.88533 22.5893C8.19067 22.3426 7.82933 21.58 8.076 20.8866C8.32267 20.1933 9.08667 19.832 9.77867 20.0773C14.48 21.7493 17.2773 21.748 22.2387 20.0706C22.9387 19.8373 23.6947 20.2093 23.9293 20.9066C24.1653 21.604 23.7907 22.3613 23.0933 22.5973C22.1227 22.9253 21.2373 23.176 20.38 23.3893L21.4373 25.3933C21.524 25.5586 21.7213 25.6333 21.9053 25.6333C21.912 25.6333 21.9173 25.6333 21.924 25.632C22.972 25.5986 27.5707 24.8186 29.256 21.8413C29.308 21.7533 29.3333 21.6546 29.3333 21.552C29.3333 15.8146 26.892 9.17597 25.6387 8.01597ZM12.0533 18.6506C10.948 18.6506 10.0533 17.46 10.0533 15.9893C10.0533 14.52 10.948 13.328 12.0533 13.328C13.1627 13.1813 14.0293 14.5186 14.0533 15.9893C14.0533 17.46 13.1587 18.6506 12.0533 18.6506ZM19.9947 18.6826C18.8893 18.6826 17.9947 17.4893 17.9947 16.016C17.9947 14.5426 18.8893 13.3493 19.9947 13.3493C21.1 13.3493 21.9947 14.5426 21.9947 16.016C21.9947 17.4893 21.1 18.6826 19.9947 18.6826Z" fill="#AAA4A5"/>
</svg>
