<svg width="130" height="26" viewBox="0 0 130 26" fill="none" xmlns="http://www.w3.org/2000/svg">
<path fill-rule="evenodd" clip-rule="evenodd" d="M30 6V26H34V18H38V22H42V26H46V22H42V14H46V10H42V6H30ZM41.84 14H34V10H41.84V14ZM78 6H82H86V10H82V14H86H90V18H86H82V22H86V26H82H78V22V18V14V10V6ZM98 6H102H106V10H102V14H106H110V18H106H102V22H106V26H102H98V22V18V14V10V6ZM54 26V6H66V10H70V22H66V26H54ZM58 22H65.84V10H58V22ZM126 10V14H122V18H118V26H130V22H122V18H126V14H130V6H118V10H126Z" fill="#AAA4A5"/>
<path d="M16 0V4H4V20H0V0H16Z" fill="#F50076"/>
<path fill-rule="evenodd" clip-rule="evenodd" d="M6 6V26H22V6H6ZM10 22V10H18V22H10Z" fill="#FFF05A"/>
</svg>
