<svg width="130" height="26" viewBox="0 0 130 26" fill="none" xmlns="http://www.w3.org/2000/svg">
<rect x="78" y="6" width="4" height="4" fill="#AAA4A5"/>
<rect x="82" y="6" width="4" height="4" fill="#AAA4A5"/>
<rect x="86" y="14" width="4" height="4" fill="#AAA4A5"/>
<rect x="82" y="14" width="4" height="4" fill="#AAA4A5"/>
<rect x="82" y="22" width="4" height="4" fill="#AAA4A5"/>
<rect x="78" y="10" width="4" height="4" fill="#AAA4A5"/>
<rect x="78" y="22" width="4" height="4" fill="#AAA4A5"/>
<rect x="78" y="14" width="4" height="4" fill="#AAA4A5"/>
<rect x="78" y="18" width="4" height="4" fill="#AAA4A5"/>
<rect x="98" y="6" width="4" height="4" fill="#AAA4A5"/>
<rect x="102" y="6" width="4" height="4" fill="#AAA4A5"/>
<rect x="102" y="14" width="4" height="4" fill="#AAA4A5"/>
<rect x="102" y="22" width="4" height="4" fill="#AAA4A5"/>
<rect x="106" y="14" width="4" height="4" fill="#AAA4A5"/>
<rect x="98" y="10" width="4" height="4" fill="#AAA4A5"/>
<rect x="98" y="22" width="4" height="4" fill="#AAA4A5"/>
<rect x="98" y="14" width="4" height="4" fill="#AAA4A5"/>
<rect x="98" y="18" width="4" height="4" fill="#AAA4A5"/>
<path d="M30 26V6H42V10H46V14H42V22H46V26H42V22H38V18H34V26H30ZM34 14H41.84V10H34V14Z" fill="#AAA4A5"/>
<path d="M54 26V6H66V10H70V22H66V26H54ZM58 22H65.84V10H58V22Z" fill="#AAA4A5"/>
<path d="M126 14V10H118V6H130V14H126ZM122 18V14H126V18H122ZM118 26V18H122V22H130V26H118Z" fill="#AAA4A5"/>
<rect x="6" y="6" width="4" height="4" fill="#FFF05A"/>
<rect y="4" width="4" height="4" fill="#F50076"/>
<rect x="6" y="10" width="4" height="4" fill="#FFF05A"/>
<rect y="8" width="4" height="4" fill="#F50076"/>
<rect x="18" y="10" width="4" height="4" fill="#FFF05A"/>
<rect x="6" y="14" width="4" height="4" fill="#FFF05A"/>
<rect y="12" width="4" height="4" fill="#F50076"/>
<rect x="18" y="14" width="4" height="4" fill="#FFF05A"/>
<rect x="6" y="18" width="4" height="4" fill="#FFF05A"/>
<rect y="16" width="4" height="4" fill="#F50076"/>
<rect x="18" y="18" width="4" height="4" fill="#FFF05A"/>
<rect x="10" y="6" width="4" height="4" fill="#FFF05A"/>
<rect x="10" y="22" width="4" height="4" fill="#FFF05A"/>
<rect x="14" y="6" width="4" height="4" fill="#FFF05A"/>
<rect x="12" width="4" height="4" fill="#F50076"/>
<rect x="8" width="4" height="4" fill="#F50076"/>
<rect x="4" width="4" height="4" fill="#F50076"/>
<rect width="4" height="4" fill="#F50076"/>
<rect x="14" y="22" width="4" height="4" fill="#FFF05A"/>
<rect x="18" y="6" width="4" height="4" fill="#FFF05A"/>
<rect x="18" y="22" width="4" height="4" fill="#FFF05A"/>
<rect x="6" y="22" width="4" height="4" fill="#FFF05A"/>
</svg>
