<svg width="122" height="24" viewBox="0 0 122 24" fill="none" xmlns="http://www.w3.org/2000/svg">
<path d="M107.958 22.0971H119.684V21.0343H109.124V17.2286L119.598 6.90857V1.85143H108.095V2.89714H118.449V6.58286L107.958 16.9371V22.0971ZM105.866 24V16.32L116.324 5.94857V4.85143H106.192V0H121.518V7.61143L111.164 17.8457V19.1486H121.518V24H105.866Z" fill="#F50076"/>
<path d="M86.4843 24V0H102.084V4.85143H91.3358V9.46286H100.901V14.3143H91.3358V19.1486H102.084V24H86.4843ZM88.4386 22.0457H100.439V20.9829H89.4843V12.4114H99.2386V11.3486H89.4843V2.89714H100.439V1.85143H88.4386V22.0457Z" fill="#F50076"/>
<path d="M66.9308 24V0H82.5308V4.85143H71.7822V9.46286H81.3479V14.3143H71.7822V19.1486H82.5308V24H66.9308ZM68.8851 22.0457H80.8851V20.9829H69.9308V12.4114H79.6851V11.3486H69.9308V2.89714H80.8851V1.85143H68.8851V22.0457Z" fill="#F50076"/>
<path d="M45.004 24V0H59.284L62.8154 3.53143V20.4686L59.284 24H45.004ZM49.8554 19.1486H56.9354L57.9811 18.1029V5.89714L56.9354 4.85143H49.8554V19.1486ZM46.924 22.1143H58.2897L60.8783 19.5086V4.52572L58.2897 1.92H46.924V22.1143ZM47.9868 21.0514V2.98286H57.8097L59.8326 4.97143V19.0629L57.8097 21.0514H47.9868Z" fill="#F50076"/>
<path d="M22.571 24V0H37.3652L40.8967 3.53143V10.9714L38.8052 12.8914L40.8967 15.1714V24H36.0452V16.8857L34.331 15.1714H27.4224V24H22.571ZM24.4738 22.1486H25.5367V13.1657H35.1367L37.9995 16.2343V22.1486H39.0452V15.9086L36.0795 12.6686L38.9424 10.2343V4.45714L36.3367 1.86857H24.4738V22.1486ZM27.4224 10.32H34.9995L36.0452 9.25714V5.89714L34.9995 4.85143H27.4224V10.32ZM25.5367 12.1029V2.91429H35.8567L37.8795 4.90286V9.89143L35.2395 12.1029H25.5367Z" fill="#F50076"/>
<path d="M3.53143 24L0 20.4686V3.53143L3.53143 0H14.9143L18.4457 3.53143V20.4686L14.9143 24H3.53143ZM5.89714 19.1486H12.5486L13.5943 18.1029V5.89714L12.5486 4.85143H5.89714L4.85143 5.89714V18.1029L5.89714 19.1486ZM4.52571 22.0457H13.9371L16.5429 19.44V4.44L13.9371 1.85143H4.52571L1.93714 4.44V19.44L4.52571 22.0457ZM5.00571 20.9829L2.98286 18.9943V4.90286L5.00571 2.89714H13.4571L15.48 4.90286V18.9943L13.4571 20.9829H5.00571Z" fill="#F50076"/>
</svg>
