<svg width="130" height="26" viewBox="0 0 130 26" fill="none" xmlns="http://www.w3.org/2000/svg">
<path d="M78 6H90V10H82V14H90V18H82V22H90V26H78V6Z" fill="#E2DADB"/>
<path d="M98 6V26H110V22H102V18H110V14H102V10H110V6H98Z" fill="#E2DADB"/>
<path d="M30 26V6H42V10H46V14H42V22H46V26H42V22H38V18H34V26H30ZM34 14H41.84V10H34V14Z" fill="#E2DADB"/>
<path d="M54 26V6H66V10H70V22H66V26H54ZM58 22H65.84V10H58V22Z" fill="#E2DADB"/>
<path d="M126 14V10H118V6H130V14H126ZM122 18V14H126V18H122ZM118 26V18H122V22H130V26H118Z" fill="#E2DADB"/>
<path d="M16 0V4H4V20H0V0H16Z" fill="#FFF05A"/>
<path fill-rule="evenodd" clip-rule="evenodd" d="M6 6V26H22V6H6ZM10 22V10H18V22H10Z" fill="#E2DADB"/>
</svg>
